<?xml version="1.0" standalone="no"?>
<!DOCTYPE svg PUBLIC "-//W3C//DTD SVG 1.1//EN" "http://www.w3.org/Graphics/SVG/1.1/DTD/svg11.dtd" >
<svg xmlns="http://www.w3.org/2000/svg">
<metadata></metadata>
<defs>
<font id="wendyregular" horiz-adv-x="819" >
<font-face units-per-em="2048" ascent="1638" descent="-410" />
<missing-glyph horiz-adv-x="413" />
<glyph horiz-adv-x="2048" />
<glyph horiz-adv-x="2048" />
<glyph unicode="&#xd;" horiz-adv-x="2048" />
<glyph unicode=" "  horiz-adv-x="413" />
<glyph unicode="&#x09;" horiz-adv-x="413" />
<glyph unicode="&#xa0;" horiz-adv-x="413" />
<glyph unicode="&#x22;" d="M0 614h205v410h-205v-410zM410 614h204v410h-204v-410z" />
<glyph unicode="#" horiz-adv-x="1138" d="M10 0v406h203v608h809v-1014h-406v406h203v405h-403v-811h-406z" />
<glyph unicode="$" d="M0 -4h205v-201h205v201h204v600h-409v201h409v198h-204v201h-205v-201h-205v-600h410v-200h-410v-199zM205 596h205v201h-205v-201zM209 193h205v204h-205v-204z" />
<glyph unicode="%" horiz-adv-x="1024" d="M0 0h205v205h-205v-205zM0 614h205v205h-205v-205zM205 205h205v205h-205v-205zM410 410h204v204h-204v-204zM614 0h205v205h-205v-205zM614 614h205v205h-205v-205z" />
<glyph unicode="&#x26;" d="M0 410h205v-205h205v205h204v204h-204v205h-205v-205h-205v-204z" />
<glyph unicode="'" horiz-adv-x="409" d="M0 614h205v410h-205v-410z" />
<glyph unicode="(" horiz-adv-x="614" d="M0 205h205v-205h205v205h-205v614h-205v-614zM205 819h205v205h-205v-205z" />
<glyph unicode=")" horiz-adv-x="614" d="M0 0v205h205v614h205v-614h-205v-205h-205zM0 819v205h205v-205h-205z" />
<glyph unicode="*" horiz-adv-x="1574" d="M23 612v199h196v201h393v-201h197v201h393v-600h-196v-199h-197v-201h-197v201h-196v199h-197v200h-196zM1202 612v199h174v-199h-174z" />
<glyph unicode="+" d="M0 410h205v-205h205v205h204v204h-204v205h-205v-205h-205v-204z" />
<glyph unicode="," horiz-adv-x="409" d="M0 -205h205v410h-205v-410z" />
<glyph unicode="-" d="M0 410h614v204h-614v-204z" />
<glyph unicode="." horiz-adv-x="409" d="M0 0h205v205h-205v-205z" />
<glyph unicode="/" horiz-adv-x="1224" d="M0 0h205v205h-205v-205zM4 209h203v203h-203v-203zM207 414h207v207h-207v-207zM414 600h204v205h-204v-205zM414 813h200v203h-200v-203z" />
<glyph unicode="0" d="M0 0h614v205h-614v-205zM0 205h205v614h-205v-614zM0 819h614v205h-614v-205zM410 205h204v614h-204v-614z" />
<glyph unicode="1" horiz-adv-x="614" d="M0 0h205v1024h-205v-1024z" />
<glyph unicode="2" d="M0 0h614v205h-409v205h-205v-410zM0 410h614v204h-614v-204zM0 819h410v205h-410v-205zM410 614h204v205h-204v-205zM410 819h204v205h-204v-205z" />
<glyph unicode="3" d="M0 0h614v205h-614v-205zM0 410h410v-205h204v205h-204v204h-410v-204zM0 819h410v205h-410v-205zM410 410h204v614h-204v-614z" />
<glyph unicode="4" d="M0 205h614v409h-204v-202h-205v407h-205v-614zM0 819h205v205h-205v-205zM410 -2h204v207h-204v-207zM410 614h204v205h-204v-205z" />
<glyph unicode="5" d="M0 0h614v205h-614v-205zM0 410h410v-205h204v409h-409v205h409v205h-614v-614z" />
<glyph unicode="6" d="M0 0h614v614h-409v205h-205v-614v-205zM0 819h614v205h-614v-205zM205 205v205h205v-205h-205z" />
<glyph unicode="7" d="M0 819h410v-819h204v1024h-614v-205z" />
<glyph unicode="8" d="M0 0h614v1024h-614v-1024zM205 205v205h205v-205h-205zM205 614v205h205v-205h-205z" />
<glyph unicode="9" d="M0 0h614v1024h-614v-614h410v-205h-410v-205zM205 614v205h205v-205h-205z" />
<glyph unicode=":" horiz-adv-x="409" d="M0 0h205v205h-205v-205zM0 410h205v204h-205v-204z" />
<glyph unicode=";" horiz-adv-x="409" d="M0 -205h205v410h-205v-410zM0 410h205v204h-205v-204z" />
<glyph unicode="&#x3c;" d="M0 410v204h205v205h205v205h204v-205h-204v-205h-205v-204h-205zM205 205v205h205v-205h-205zM410 0v205h204v-205h-204z" />
<glyph unicode="=" horiz-adv-x="614" d="M0 205h410v205h-410v-205zM0 614h410v205h-410v-205z" />
<glyph unicode="&#x3e;" d="M0 0h205v205h-205v-205zM0 819h205v-205h205v-204h204v204h-204v205h-205v205h-205v-205zM205 205h205v205h-205v-205z" />
<glyph unicode="?" d="M0 621h205v186h-205v-186zM2 412h205v204h-205v-204zM4 0h205v205h-205v-205zM6 1008h410v-199h-205v-199h410v596h-615v-198z" />
<glyph unicode="@" horiz-adv-x="1024" d="M0 0h614v205h-407v819h-207v-1024zM4 1012h201v198h-201v-198zM205 1010h205v192h-205v-192zM408 1012h204v190h-204v-190zM410 408h204v206h-204v-206zM410 612h204v207h-204v-207zM614 -2h205v207h-205v-207zM614 408h205v206h-205v-206zM614 1012h205v188h-205v-188z M819 -2h205v207h-205v-207zM819 -2h205v207h-205v-207zM819 410h205v202h-205v-202zM819 612h205v207h-205v-207zM819 819h205v201h-205v-201zM819 1020h205v180h-205v-180z" />
<glyph unicode="A" d="M0 0h205v410h205v-410h204v1024h-614v-1024zM205 614v205h205v-205h-205z" />
<glyph unicode="B" d="M0 0h614v410h-204v204h-205v205h205v-205h204v410h-614v-1024zM205 205v205h205v-205h-205z" />
<glyph unicode="C" d="M0 0h614v205h-409v614h409v205h-614v-1024z" />
<glyph unicode="D" d="M0 0h410v205h-205v614h205v-614h204v614h-204v205h-410v-1024z" />
<glyph unicode="E" d="M0 0h614v205h-409v205h409v204h-409v205h409v205h-614v-1024z" />
<glyph unicode="F" d="M0 0v1020h616v-205h-411v-203h207v-204h-207v-408h-205z" />
<glyph unicode="G" d="M0 0h614v614h-204v-409h-205v614h409v205h-614v-1024z" />
<glyph unicode="H" d="M0 0h205v410h205v-205h204v819h-204v-410h-205v205h-205v-819zM4 817h205v205h-205v-205zM410 0h204v205h-204v-205z" />
<glyph unicode="I" horiz-adv-x="413" d="M4 0h205v1024h-205v-1024z" />
<glyph unicode="J" d="M0 0h614v1024h-204v-819h-410v-205z" />
<glyph unicode="K" d="M0 0h205v410h205v-410h204v410h-204v204h-205v410h-205v-1024zM410 614h204v410h-204v-410z" />
<glyph unicode="L" d="M0 0h614v205h-409v612h-205v-817zM0 817h205v207h-205v-207z" />
<glyph unicode="M" horiz-adv-x="1126" d="M0 0v1020h408v-205h-203v-815h-205zM408 203v612h204v-612h-204zM612 815v205h408v-1020h-205v815h-203z" />
<glyph unicode="N" d="M0 0h205v819h205v-819h204v1024h-204h-410v-1024z" />
<glyph unicode="O" d="M0 0h614v1024h-614v-1024zM205 205v614h205v-614h-205z" />
<glyph unicode="P" d="M0 0h205v410h409v614h-614v-1024zM205 614v205h205v-205h-205z" />
<glyph unicode="Q" d="M-2 410h418v-410h209v1024h-627v-614zM215 614v205h205v-205h-205z" />
<glyph unicode="R" d="M0 0h205v410h205v-410h204v410h-204v204h204v410h-614v-1024zM205 614v205h205v-205h-205z" />
<glyph unicode="S" d="M0 0h614v614h-409v205h409v205h-614v-614h410v-205h-410v-205z" />
<glyph unicode="T" d="M0 819h205v-819h205v819h204v205h-614v-205z" />
<glyph unicode="U" d="M0 0h614v817h-204v-612h-205v819h-205v-1024zM416 817h205v207h-205v-207z" />
<glyph unicode="V" d="M0 205h205v-205h205v205h-205v819h-205v-819zM410 205h204v612h-204v-612zM410 817h204v207h-204v-207z" />
<glyph unicode="W" horiz-adv-x="1126" d="M0 -2v1022h205v-817h203v-205h-408zM408 203v409h204v-409h-204zM612 -2v205h203v817h205v-1022h-408z" />
<glyph unicode="X" d="M0 0h205v410h-205v-410zM0 614h205v-204h205v204h-205v410h-205v-410zM410 0h204v410h-204v-410zM410 614h204v410h-204v-410z" />
<glyph unicode="Y" d="M0 0h412v207h-412v-207zM0 410h614v614h-204v-410h-205v410h-205v-614zM412 0h204v410h-204v-410z" />
<glyph unicode="Z" d="M0 0h614v205h-409v203h-205v-408zM0 817h410v-203h204v408h-614v-205zM205 410h205v204h-205v-204z" />
<glyph unicode="[" horiz-adv-x="614" d="M0 0v1024h410v-205h-205v-616h205v-203h-410z" />
<glyph unicode="\" horiz-adv-x="1224" d="M0 614v205h205v-205h-205zM0 819v203h201v-203h-201zM205 408v206h207v-206h-207zM412 205v203h202v-203h-202zM414 0v205h204v-205h-204z" />
<glyph unicode="]" horiz-adv-x="614" d="M0 0v203h205v616h-205v205h410v-1024h-410z" />
<glyph unicode="_" horiz-adv-x="804" d="M0 0v131h616v-131h-616z" />
<glyph unicode="a" d="M0 0h205v410h205v-410h204v1024h-614v-1024zM205 614v205h205v-205h-205z" />
<glyph unicode="b" d="M0 0h614v410h-204v204h-205v205h205v-205h204v410h-614v-1024zM205 205v205h205v-205h-205z" />
<glyph unicode="c" d="M0 0h614v205h-409v614h409v205h-614v-1024z" />
<glyph unicode="d" d="M0 0h410v205h-205v614h205v-614h204v614h-204v205h-410v-1024z" />
<glyph unicode="e" d="M0 0h614v205h-409v205h409v204h-409v205h409v205h-614v-1024z" />
<glyph unicode="f" d="M0 0v1020h616v-205h-411v-203h207v-204h-207v-408h-205z" />
<glyph unicode="g" d="M0 0h614v614h-204v-409h-205v614h409v205h-614v-1024z" />
<glyph unicode="h" d="M0 0h205v410h205v-205h204v819h-204v-410h-205v205h-205v-819zM4 817h205v205h-205v-205zM410 0h204v205h-204v-205z" />
<glyph unicode="i" horiz-adv-x="413" d="M2 -2h205v1024h-205v-1024z" />
<glyph unicode="j" d="M0 0h614v1024h-204v-819h-410v-205z" />
<glyph unicode="k" d="M0 0h205v410h205v-410h204v410h-204v204h-205v410h-205v-1024zM410 614h204v410h-204v-410z" />
<glyph unicode="l" d="M0 0h614v205h-409v612h-205v-817zM0 817h205v207h-205v-207z" />
<glyph unicode="m" horiz-adv-x="1126" d="M0 0v1020h408v-205h-203v-815h-205zM408 203v612h204v-612h-204zM612 815v205h408v-1020h-205v815h-203z" />
<glyph unicode="n" d="M0 0h205v819h205v-819h204v1024h-204h-410v-1024z" />
<glyph unicode="o" d="M0 0h614v1024h-614v-1024zM205 205v614h205v-614h-205z" />
<glyph unicode="p" d="M0 0h205v410h409v614h-614v-1024zM205 614v205h205v-205h-205z" />
<glyph unicode="q" d="M-2 410h418v-410h209v1024h-627v-614zM215 614v205h205v-205h-205z" />
<glyph unicode="r" d="M0 0h205v410h205v-410h204v410h-204v204h204v410h-614v-1024zM205 614v205h205v-205h-205z" />
<glyph unicode="s" d="M0 0h614v614h-409v205h409v205h-614v-614h410v-205h-410v-205z" />
<glyph unicode="t" d="M0 819h205v-819h205v819h204v205h-614v-205z" />
<glyph unicode="u" d="M0 0h614v1024h-204v-819h-205v819h-205v-1024z" />
<glyph unicode="v" d="M0 205h205v-205h205v205h-205v819h-205v-819zM410 205h204v612h-204v-612zM410 817h204v207h-204v-207z" />
<glyph unicode="w" horiz-adv-x="1126" d="M0 -2v1022h205v-817h203v-205h-408zM408 203v409h204v-409h-204zM612 -2v205h203v817h205v-1022h-408z" />
<glyph unicode="x" d="M0 0h205v410h-205v-410zM0 614h205v-204h205v204h-205v410h-205v-410zM410 0h204v410h-204v-410zM410 614h204v410h-204v-410z" />
<glyph unicode="y" d="M0 0h412v207h-412v-207zM0 410h614v614h-204v-410h-205v410h-205v-614zM412 0h204v410h-204v-410z" />
<glyph unicode="z" d="M0 0h614v205h-409v203h-205v-408zM0 817h410v-203h204v408h-614v-205zM205 410h205v204h-205v-204z" />
<glyph unicode="|" horiz-adv-x="409" d="M0 -205h205v1434h-205v-1434z" />
<glyph unicode="~" horiz-adv-x="1021" d="M2 399v224h205v-224h-205zM207 618v205h205v-205h-205zM414 412v204h202v-204h-202zM614 612v205h207v-205h-207z" />
<glyph unicode="&#xad;" d="M0 410h614v204h-614v-204z" />
<glyph unicode="&#xc4;" d="M0 0v1024h614v-1024h-204v410h-205v-410h-205zM0 1231v203h205v-205zM205 614h205v205h-205v-205zM410 1231v203h204v-203h-204z" />
<glyph unicode="&#xd6;" d="M0 0v1024h614v-1024h-614zM0 1229v205h205v-205h-205zM205 205h205v614h-205v-614zM408 1229v205h208v-205h-208z" />
<glyph unicode="&#xdc;" d="M0 0v1024h205v-819h205v819h204v-1024h-614zM0 1231v203h205v-205zM410 1229v205h208v-205h-208z" />
<glyph unicode="&#xe4;" d="M0 0v1024h614v-1024h-204v410h-205v-410h-205zM0 1231v203h205v-205zM205 614h205v205h-205v-205zM410 1231v203h204v-203h-204z" />
<glyph unicode="&#xf6;" d="M0 0v1024h614v-1024h-614zM0 1229v205h205v-205h-205zM205 205h205v614h-205v-614zM408 1229v205h208v-205h-208z" />
<glyph unicode="&#xfc;" d="M0 0v1024h205v-819h205v819h204v-1024h-614zM0 1231v203h205v-205zM410 1229v205h208v-205h-208z" />
<glyph unicode="&#x2000;" horiz-adv-x="717" />
<glyph unicode="&#x2001;" horiz-adv-x="1434" />
<glyph unicode="&#x2002;" horiz-adv-x="717" />
<glyph unicode="&#x2003;" horiz-adv-x="1434" />
<glyph unicode="&#x2004;" horiz-adv-x="478" />
<glyph unicode="&#x2005;" horiz-adv-x="358" />
<glyph unicode="&#x2006;" horiz-adv-x="239" />
<glyph unicode="&#x2007;" horiz-adv-x="239" />
<glyph unicode="&#x2008;" horiz-adv-x="179" />
<glyph unicode="&#x2009;" horiz-adv-x="286" />
<glyph unicode="&#x200a;" horiz-adv-x="79" />
<glyph unicode="&#x2010;" d="M0 410h614v204h-614v-204z" />
<glyph unicode="&#x2011;" d="M0 410h614v204h-614v-204z" />
<glyph unicode="&#x2012;" d="M0 410h614v204h-614v-204z" />
<glyph unicode="&#x2013;" horiz-adv-x="1229" d="M0 410h1024v204h-1024v-204z" />
<glyph unicode="&#x2014;" horiz-adv-x="2253" d="M0 410h2048v204h-2048v-204z" />
<glyph unicode="&#x202f;" horiz-adv-x="286" />
<glyph unicode="&#x205f;" horiz-adv-x="358" />
<glyph unicode="&#xe000;" horiz-adv-x="1024" d="M0 0v1024h1024v-1024h-1024z" />
</font>
</defs>
</svg>
