<?xml version="1.0" encoding="utf-8"?>
<!-- Generator: Adobe Illustrator 15.0.1, SVG Export Plug-In . SVG Version: 6.00 Build 0)  -->
<!DOCTYPE svg PUBLIC "-//W3C//DTD SVG 1.1//EN" "http://www.w3.org/Graphics/SVG/1.1/DTD/svg11.dtd" [
	<!ENTITY ns_extend "http://ns.adobe.com/Extensibility/1.0/">
	<!ENTITY ns_ai "http://ns.adobe.com/AdobeIllustrator/10.0/">
	<!ENTITY ns_graphs "http://ns.adobe.com/Graphs/1.0/">
	<!ENTITY ns_vars "http://ns.adobe.com/Variables/1.0/">
	<!ENTITY ns_imrep "http://ns.adobe.com/ImageReplacement/1.0/">
	<!ENTITY ns_sfw "http://ns.adobe.com/SaveForWeb/1.0/">
	<!ENTITY ns_custom "http://ns.adobe.com/GenericCustomNamespace/1.0/">
	<!ENTITY ns_adobe_xpath "http://ns.adobe.com/XPath/1.0/">
]>
<svg version="1.1" id="Layer_3" xmlns:x="&ns_extend;" xmlns:i="&ns_ai;" xmlns:graph="&ns_graphs;"
	 xmlns="http://www.w3.org/2000/svg" xmlns:xlink="http://www.w3.org/1999/xlink" x="0px" y="0px" width="242px" height="242px"
	 viewBox="0 0 242 242" enable-background="new 0 0 242 242" xml:space="preserve">
<metadata>
	<sfw  xmlns="&ns_sfw;">
		<slices></slices>
		<sliceSourceBounds  y="-450.5" x="235.75" width="214.75" height="237.25" bottomLeftOrigin="true"></sliceSourceBounds>
	</sfw>
</metadata>
<rect x="230.75" y="230.75" fill="#FEF3DB" stroke="#FEF3DB" stroke-miterlimit="10" width="11.25" height="11.25"/>
<rect x="230.75" y="219.5" fill="#FEF3DB" stroke="#FEF3DB" stroke-miterlimit="10" width="11.25" height="11.25"/>
<rect x="230.75" y="208.25" fill="#FEF3DB" stroke="#FEF3DB" stroke-miterlimit="10" width="11.25" height="11.25"/>
<rect x="230.75" y="197" fill="#FEF3DB" stroke="#FEF3DB" stroke-miterlimit="10" width="11.25" height="11.25"/>
<rect x="230.75" y="185.75" fill="#FEF3DB" stroke="#FEF3DB" stroke-miterlimit="10" width="11.25" height="11.25"/>
<rect x="230.75" y="174.5" fill="#FEF3DB" stroke="#FEF3DB" stroke-miterlimit="10" width="11.25" height="11.25"/>
<rect x="230.75" y="163.25" fill="#FEF3DB" stroke="#FEF3DB" stroke-miterlimit="10" width="11.25" height="11.25"/>
<rect x="230.75" y="152" fill="#FEF3DB" stroke="#FEF3DB" stroke-miterlimit="10" width="11.25" height="11.25"/>
<rect x="230.75" y="140.75" fill="#FEF3DB" stroke="#FEF3DB" stroke-miterlimit="10" width="11.25" height="11.25"/>
<rect x="230.75" y="129.5" fill="#FEF3DB" stroke="#FEF3DB" stroke-miterlimit="10" width="11.25" height="11.25"/>
<rect x="230.75" y="118.25" fill="#FEF3DB" stroke="#FEF3DB" stroke-miterlimit="10" width="11.25" height="11.25"/>
<rect x="230.75" y="107" fill="#FEF3DB" stroke="#FEF3DB" stroke-miterlimit="10" width="11.25" height="11.25"/>
<rect x="230.75" y="95.75" fill="#A17B5E" stroke="#A17B5E" stroke-miterlimit="10" width="11.25" height="11.25"/>
<rect x="219.5" y="230.75" fill="#FEF3DB" stroke="#FEF3DB" stroke-miterlimit="10" width="11.25" height="11.25"/>
<rect x="219.5" y="219.5" fill="#FEF3DB" stroke="#FEF3DB" stroke-miterlimit="10" width="11.25" height="11.25"/>
<rect x="219.5" y="208.25" fill="#FEF3DB" stroke="#FEF3DB" stroke-miterlimit="10" width="11.25" height="11.25"/>
<rect x="219.5" y="197" fill="#FEF3DB" stroke="#FEF3DB" stroke-miterlimit="10" width="11.25" height="11.25"/>
<rect x="219.5" y="185.75" fill="#FEF3DB" stroke="#FEF3DB" stroke-miterlimit="10" width="11.25" height="11.25"/>
<rect x="219.5" y="174.5" fill="#FEF3DB" stroke="#FEF3DB" stroke-miterlimit="10" width="11.25" height="11.25"/>
<rect x="219.5" y="163.25" fill="#FEF3DB" stroke="#FEF3DB" stroke-miterlimit="10" width="11.25" height="11.25"/>
<rect x="219.5" y="152" fill="#FEF3DB" stroke="#FEF3DB" stroke-miterlimit="10" width="11.25" height="11.25"/>
<rect x="219.5" y="140.75" fill="#FEF3DB" stroke="#FEF3DB" stroke-miterlimit="10" width="11.25" height="11.25"/>
<rect x="219.5" y="129.5" fill="#FEF3DB" stroke="#FEF3DB" stroke-miterlimit="10" width="11.25" height="11.25"/>
<rect x="219.5" y="118.25" fill="#FEF3DB" stroke="#FEF3DB" stroke-miterlimit="10" width="11.25" height="11.25"/>
<rect x="219.5" y="107" fill="#D3B49F" stroke="#D3B49F" stroke-miterlimit="10" width="11.25" height="11.25"/>
<rect x="219.5" y="95.75" fill="#D3B49F" stroke="#D3B49F" stroke-miterlimit="10" width="11.25" height="11.25"/>
<rect x="219.5" y="84.5" fill="#A17B5E" stroke="#A17B5E" stroke-miterlimit="10" width="11.25" height="11.25"/>
<rect x="208.25" y="230.75" fill="#FEF3DB" stroke="#FEF3DB" stroke-miterlimit="10" width="11.25" height="11.25"/>
<rect x="208.25" y="219.5" fill="#FEF3DB" stroke="#FEF3DB" stroke-miterlimit="10" width="11.25" height="11.25"/>
<rect x="208.25" y="208.25" fill="#FEF3DB" stroke="#FEF3DB" stroke-miterlimit="10" width="11.25" height="11.25"/>
<rect x="208.25" y="197" fill="#FEF3DB" stroke="#FEF3DB" stroke-miterlimit="10" width="11.25" height="11.25"/>
<rect x="208.25" y="185.75" fill="#FEF3DB" stroke="#FEF3DB" stroke-miterlimit="10" width="11.25" height="11.25"/>
<rect x="208.25" y="174.5" fill="#FEF3DB" stroke="#FEF3DB" stroke-miterlimit="10" width="11.25" height="11.25"/>
<rect x="208.25" y="163.25" fill="#FEF3DB" stroke="#FEF3DB" stroke-miterlimit="10" width="11.25" height="11.25"/>
<rect x="208.25" y="152" fill="#FEF3DB" stroke="#FEF3DB" stroke-miterlimit="10" width="11.25" height="11.25"/>
<rect x="208.25" y="140.75" fill="#FEF3DB" stroke="#FEF3DB" stroke-miterlimit="10" width="11.25" height="11.25"/>
<rect x="208.25" y="129.5" fill="#FEF3DB" stroke="#FEF3DB" stroke-miterlimit="10" width="11.25" height="11.25"/>
<rect x="208.25" y="118.25" fill="#FEF3DB" stroke="#FEF3DB" stroke-miterlimit="10" width="11.25" height="11.25"/>
<rect x="208.25" y="107" fill="#D3B49F" stroke="#D3B49F" stroke-miterlimit="10" width="11.25" height="11.25"/>
<rect x="208.25" y="95.75" fill="#D3B49F" stroke="#D3B49F" stroke-miterlimit="10" width="11.25" height="11.25"/>
<rect x="208.25" y="84.5" fill="#A17B5E" stroke="#A17B5E" stroke-miterlimit="10" width="11.25" height="11.25"/>
<rect x="197" y="230.75" fill="#FEF3DB" stroke="#FEF3DB" stroke-miterlimit="10" width="11.25" height="11.25"/>
<rect x="197" y="219.5" fill="#FEF3DB" stroke="#FEF3DB" stroke-miterlimit="10" width="11.25" height="11.25"/>
<rect x="197" y="208.25" fill="#FEF3DB" stroke="#FEF3DB" stroke-miterlimit="10" width="11.25" height="11.25"/>
<rect x="197" y="197" fill="#FEF3DB" stroke="#FEF3DB" stroke-miterlimit="10" width="11.25" height="11.25"/>
<rect x="197" y="185.75" fill="#FEF3DB" stroke="#FEF3DB" stroke-miterlimit="10" width="11.25" height="11.25"/>
<rect x="197" y="174.5" fill="#FEF3DB" stroke="#FEF3DB" stroke-miterlimit="10" width="11.25" height="11.25"/>
<rect x="197" y="163.25" fill="#FEF3DB" stroke="#FEF3DB" stroke-miterlimit="10" width="11.25" height="11.25"/>
<rect x="197" y="152" fill="#FEF3DB" stroke="#FEF3DB" stroke-miterlimit="10" width="11.25" height="11.25"/>
<rect x="197" y="140.75" fill="#FEF3DB" stroke="#FEF3DB" stroke-miterlimit="10" width="11.25" height="11.25"/>
<rect x="197" y="129.5" fill="#FEF3DB" stroke="#FEF3DB" stroke-miterlimit="10" width="11.25" height="11.25"/>
<rect x="197" y="118.25" fill="#D3B49F" stroke="#D3B49F" stroke-miterlimit="10" width="11.25" height="11.25"/>
<rect x="197" y="107" fill="#775441" stroke="#775441" stroke-miterlimit="10" width="11.25" height="11.25"/>
<rect x="197" y="95.75" fill="#D3B49F" stroke="#D3B49F" stroke-miterlimit="10" width="11.25" height="11.25"/>
<rect x="197" y="84.5" fill="#A17B5E" stroke="#A17B5E" stroke-miterlimit="10" width="11.25" height="11.25"/>
<rect x="197" y="50.75" fill="#A17B5E" stroke="#A17B5E" stroke-miterlimit="10" width="11.25" height="11.25"/>
<rect x="197" y="39.5" fill="#A17B5E" stroke="#A17B5E" stroke-miterlimit="10" width="11.25" height="11.25"/>
<rect x="185.75" y="230.75" fill="#FEF3DB" stroke="#FEF3DB" stroke-miterlimit="10" width="11.25" height="11.25"/>
<rect x="185.75" y="219.5" fill="#FEF3DB" stroke="#FEF3DB" stroke-miterlimit="10" width="11.25" height="11.25"/>
<rect x="185.75" y="208.25" fill="#FEF3DB" stroke="#FEF3DB" stroke-miterlimit="10" width="11.25" height="11.25"/>
<rect x="185.75" y="197" fill="#FEF3DB" stroke="#FEF3DB" stroke-miterlimit="10" width="11.25" height="11.25"/>
<rect x="185.75" y="185.75" fill="#FEF3DB" stroke="#FEF3DB" stroke-miterlimit="10" width="11.25" height="11.25"/>
<rect x="185.75" y="174.5" fill="#FEF3DB" stroke="#FEF3DB" stroke-miterlimit="10" width="11.25" height="11.25"/>
<rect x="185.75" y="163.25" fill="#FEF3DB" stroke="#FEF3DB" stroke-miterlimit="10" width="11.25" height="11.25"/>
<rect x="185.75" y="152" fill="#FEF3DB" stroke="#FEF3DB" stroke-miterlimit="10" width="11.25" height="11.25"/>
<rect x="185.75" y="140.75" fill="#FEF3DB" stroke="#FEF3DB" stroke-miterlimit="10" width="11.25" height="11.25"/>
<rect x="185.75" y="129.5" fill="#FEF3DB" stroke="#FEF3DB" stroke-miterlimit="10" width="11.25" height="11.25"/>
<rect x="185.75" y="118.25" fill="#FEF3DB" stroke="#FEF3DB" stroke-miterlimit="10" width="11.25" height="11.25"/>
<rect x="185.75" y="107" fill="#775441" stroke="#775441" stroke-miterlimit="10" width="11.25" height="11.25"/>
<rect x="185.75" y="95.75" fill="#775441" stroke="#775441" stroke-miterlimit="10" width="11.25" height="11.25"/>
<rect x="185.75" y="84.5" fill="#A17B5E" stroke="#A17B5E" stroke-miterlimit="10" width="11.25" height="11.25"/>
<rect x="185.75" y="73.25" fill="#A17B5E" stroke="#A17B5E" stroke-miterlimit="10" width="11.25" height="11.25"/>
<rect x="185.75" y="62" fill="#A17B5E" stroke="#A17B5E" stroke-miterlimit="10" width="11.25" height="11.25"/>
<rect x="185.75" y="50.75" fill="#FEF3DB" stroke="#FEF3DB" stroke-miterlimit="10" width="11.25" height="11.25"/>
<rect x="185.75" y="39.5" fill="#D3B49F" stroke="#D3B49F" stroke-miterlimit="10" width="11.25" height="11.25"/>
<rect x="185.75" y="28.25" fill="#A17B5E" stroke="#A17B5E" stroke-miterlimit="10" width="11.25" height="11.25"/>
<rect x="185.75" y="17" fill="#D3B49F" stroke="#D3B49F" stroke-miterlimit="10" width="11.25" height="11.25"/>
<rect x="174.5" y="230.75" fill="#FEF3DB" stroke="#FEF3DB" stroke-miterlimit="10" width="11.25" height="11.25"/>
<rect x="174.5" y="219.5" fill="#FEF3DB" stroke="#FEF3DB" stroke-miterlimit="10" width="11.25" height="11.25"/>
<rect x="174.5" y="208.25" fill="#FEF3DB" stroke="#FEF3DB" stroke-miterlimit="10" width="11.25" height="11.25"/>
<rect x="174.5" y="197" fill="#FEF3DB" stroke="#FEF3DB" stroke-miterlimit="10" width="11.25" height="11.25"/>
<rect x="174.5" y="185.75" fill="#FEF3DB" stroke="#FEF3DB" stroke-miterlimit="10" width="11.25" height="11.25"/>
<rect x="174.5" y="174.5" fill="#FEF3DB" stroke="#FEF3DB" stroke-miterlimit="10" width="11.25" height="11.25"/>
<rect x="174.5" y="163.25" fill="#FEF3DB" stroke="#FEF3DB" stroke-miterlimit="10" width="11.25" height="11.25"/>
<rect x="174.5" y="152" fill="#FEF3DB" stroke="#FEF3DB" stroke-miterlimit="10" width="11.25" height="11.25"/>
<rect x="174.5" y="140.75" fill="#FEF3DB" stroke="#FEF3DB" stroke-miterlimit="10" width="11.25" height="11.25"/>
<rect x="174.5" y="129.5" fill="#FEF3DB" stroke="#FEF3DB" stroke-miterlimit="10" width="11.25" height="11.25"/>
<rect x="174.5" y="118.25" fill="#FEF3DB" stroke="#FEF3DB" stroke-miterlimit="10" width="11.25" height="11.25"/>
<rect x="174.5" y="107" fill="#FEF3DB" stroke="#FEF3DB" stroke-miterlimit="10" width="11.25" height="11.25"/>
<rect x="174.5" y="95.75" fill="#FEF3DB" stroke="#FEF3DB" stroke-miterlimit="10" width="11.25" height="11.25"/>
<rect x="174.5" y="84.5" fill="#FEF3DB" stroke="#FEF3DB" stroke-miterlimit="10" width="11.25" height="11.25"/>
<rect x="174.5" y="73.25" fill="#FEF3DB" stroke="#FEF3DB" stroke-miterlimit="10" width="11.25" height="11.25"/>
<rect x="174.5" y="62" fill="#FEF3DB" stroke="#FEF3DB" stroke-miterlimit="10" width="11.25" height="11.25"/>
<rect x="174.5" y="50.75" fill="#FEF3DB" stroke="#FEF3DB" stroke-miterlimit="10" width="11.25" height="11.25"/>
<rect x="174.5" y="39.5" fill="#FEF3DB" stroke="#FEF3DB" stroke-miterlimit="10" width="11.25" height="11.25"/>
<rect x="174.5" y="28.25" fill="#D3B49F" stroke="#D3B49F" stroke-miterlimit="10" width="11.25" height="11.25"/>
<rect x="174.5" y="17" fill="#775441" stroke="#775441" stroke-miterlimit="10" width="11.25" height="11.25"/>
<rect x="163.25" y="230.75" fill="#FEF3DB" stroke="#FEF3DB" stroke-miterlimit="10" width="11.25" height="11.25"/>
<rect x="163.25" y="219.5" fill="#FEF3DB" stroke="#FEF3DB" stroke-miterlimit="10" width="11.25" height="11.25"/>
<rect x="163.25" y="208.25" fill="#FEF3DB" stroke="#FEF3DB" stroke-miterlimit="10" width="11.25" height="11.25"/>
<rect x="163.25" y="197" fill="#FEF3DB" stroke="#FEF3DB" stroke-miterlimit="10" width="11.25" height="11.25"/>
<rect x="163.25" y="185.75" fill="#FEF3DB" stroke="#FEF3DB" stroke-miterlimit="10" width="11.25" height="11.25"/>
<rect x="163.25" y="174.5" fill="#FEF3DB" stroke="#FEF3DB" stroke-miterlimit="10" width="11.25" height="11.25"/>
<rect x="163.25" y="163.25" fill="#FEF3DB" stroke="#FEF3DB" stroke-miterlimit="10" width="11.25" height="11.25"/>
<rect x="163.25" y="152" fill="#FEF3DB" stroke="#FEF3DB" stroke-miterlimit="10" width="11.25" height="11.25"/>
<rect x="163.25" y="140.75" fill="#FEF3DB" stroke="#FEF3DB" stroke-miterlimit="10" width="11.25" height="11.25"/>
<rect x="163.25" y="129.5" fill="#FEF3DB" stroke="#FEF3DB" stroke-miterlimit="10" width="11.25" height="11.25"/>
<rect x="163.25" y="118.25" fill="#FEF3DB" stroke="#FEF3DB" stroke-miterlimit="10" width="11.25" height="11.25"/>
<rect x="163.25" y="107" fill="#FEF3DB" stroke="#FEF3DB" stroke-miterlimit="10" width="11.25" height="11.25"/>
<rect x="163.25" y="95.75" fill="#FEF3DB" stroke="#FEF3DB" stroke-miterlimit="10" width="11.25" height="11.25"/>
<rect x="163.25" y="84.5" fill="#FEF3DB" stroke="#FEF3DB" stroke-miterlimit="10" width="11.25" height="11.25"/>
<rect x="163.25" y="73.25" fill="#FEF3DB" stroke="#FEF3DB" stroke-miterlimit="10" width="11.25" height="11.25"/>
<rect x="163.25" y="62" fill="#FEF3DB" stroke="#FEF3DB" stroke-miterlimit="10" width="11.25" height="11.25"/>
<rect x="163.25" y="50.75" fill="#FEF3DB" stroke="#FEF3DB" stroke-miterlimit="10" width="11.25" height="11.25"/>
<rect x="163.25" y="39.5" fill="#D3B49F" stroke="#D3B49F" stroke-miterlimit="10" width="11.25" height="11.25"/>
<rect x="163.25" y="28.25" fill="#775441" stroke="#775441" stroke-miterlimit="10" width="11.25" height="11.25"/>
<rect x="163.25" y="17" fill="#775441" stroke="#775441" stroke-miterlimit="10" width="11.25" height="11.25"/>
<rect x="152" y="230.75" fill="#FEF3DB" stroke="#FEF3DB" stroke-miterlimit="10" width="11.25" height="11.25"/>
<rect x="152" y="219.5" fill="#FEF3DB" stroke="#FEF3DB" stroke-miterlimit="10" width="11.25" height="11.25"/>
<rect x="152" y="208.25" fill="#FEF3DB" stroke="#FEF3DB" stroke-miterlimit="10" width="11.25" height="11.25"/>
<rect x="152" y="197" fill="#FEF3DB" stroke="#FEF3DB" stroke-miterlimit="10" width="11.25" height="11.25"/>
<rect x="152" y="185.75" fill="#FEF3DB" stroke="#FEF3DB" stroke-miterlimit="10" width="11.25" height="11.25"/>
<rect x="152" y="174.5" fill="#FEF3DB" stroke="#FEF3DB" stroke-miterlimit="10" width="11.25" height="11.25"/>
<rect x="152" y="163.25" fill="#FEF3DB" stroke="#FEF3DB" stroke-miterlimit="10" width="11.25" height="11.25"/>
<rect x="152" y="152" fill="#FEF3DB" stroke="#FEF3DB" stroke-miterlimit="10" width="11.25" height="11.25"/>
<rect x="152" y="140.75" fill="#FEF3DB" stroke="#FEF3DB" stroke-miterlimit="10" width="11.25" height="11.25"/>
<rect x="152" y="129.5" fill="#FEF3DB" stroke="#FEF3DB" stroke-miterlimit="10" width="11.25" height="11.25"/>
<rect x="152" y="118.25" fill="#FEF3DB" stroke="#FEF3DB" stroke-miterlimit="10" width="11.25" height="11.25"/>
<rect x="152" y="107" fill="#FEF3DB" stroke="#FEF3DB" stroke-miterlimit="10" width="11.25" height="11.25"/>
<rect x="152" y="95.75" fill="#FEF3DB" stroke="#FEF3DB" stroke-miterlimit="10" width="11.25" height="11.25"/>
<rect x="152" y="84.5" fill="#FEF3DB" stroke="#FEF3DB" stroke-miterlimit="10" width="11.25" height="11.25"/>
<rect x="152" y="73.25" fill="#FEF3DB" stroke="#FEF3DB" stroke-miterlimit="10" width="11.25" height="11.25"/>
<rect x="152" y="62" fill="#FEF3DB" stroke="#FEF3DB" stroke-miterlimit="10" width="11.25" height="11.25"/>
<rect x="152" y="50.75" fill="#D3B49F" stroke="#D3B49F" stroke-miterlimit="10" width="11.25" height="11.25"/>
<rect x="152" y="39.5" fill="#775441" stroke="#775441" stroke-miterlimit="10" width="11.25" height="11.25"/>
<rect x="152" y="28.25" fill="#D3B49F" stroke="#D3B49F" stroke-miterlimit="10" width="11.25" height="11.25"/>
<rect x="140.75" y="230.75" fill="#FEF3DB" stroke="#FEF3DB" stroke-miterlimit="10" width="11.25" height="11.25"/>
<rect x="140.75" y="219.5" fill="#FEF3DB" stroke="#FEF3DB" stroke-miterlimit="10" width="11.25" height="11.25"/>
<rect x="140.75" y="208.25" fill="#FEF3DB" stroke="#FEF3DB" stroke-miterlimit="10" width="11.25" height="11.25"/>
<rect x="140.75" y="197" fill="#FEF3DB" stroke="#FEF3DB" stroke-miterlimit="10" width="11.25" height="11.25"/>
<rect x="140.75" y="185.75" fill="#FEF3DB" stroke="#FEF3DB" stroke-miterlimit="10" width="11.25" height="11.25"/>
<rect x="140.75" y="174.5" fill="#FEF3DB" stroke="#FEF3DB" stroke-miterlimit="10" width="11.25" height="11.25"/>
<rect x="140.75" y="163.25" fill="#FEF3DB" stroke="#FEF3DB" stroke-miterlimit="10" width="11.25" height="11.25"/>
<rect x="140.75" y="152" fill="#FEF3DB" stroke="#FEF3DB" stroke-miterlimit="10" width="11.25" height="11.25"/>
<rect x="140.75" y="140.75" fill="#FEF3DB" stroke="#FEF3DB" stroke-miterlimit="10" width="11.25" height="11.25"/>
<rect x="140.75" y="129.5" fill="#FEF3DB" stroke="#FEF3DB" stroke-miterlimit="10" width="11.25" height="11.25"/>
<rect x="140.75" y="118.25" fill="#FEF3DB" stroke="#FEF3DB" stroke-miterlimit="10" width="11.25" height="11.25"/>
<rect x="140.75" y="107" fill="#FEF3DB" stroke="#FEF3DB" stroke-miterlimit="10" width="11.25" height="11.25"/>
<rect x="140.75" y="95.75" fill="#FEF3DB" stroke="#FEF3DB" stroke-miterlimit="10" width="11.25" height="11.25"/>
<rect x="140.75" y="84.5" fill="#D3B49F" stroke="#D3B49F" stroke-miterlimit="10" width="11.25" height="11.25"/>
<rect x="140.75" y="73.25" fill="#371A11" stroke="#371A11" stroke-miterlimit="10" width="11.25" height="11.25"/>
<rect x="140.75" y="62" fill="#FEF3DB" stroke="#FEF3DB" stroke-miterlimit="10" width="11.25" height="11.25"/>
<rect x="140.75" y="50.75" fill="#A17B5E" stroke="#A17B5E" stroke-miterlimit="10" width="11.25" height="11.25"/>
<rect x="140.75" y="39.5" fill="#D3B49F" stroke="#D3B49F" stroke-miterlimit="10" width="11.25" height="11.25"/>
<rect x="129.5" y="230.75" fill="#FEF3DB" stroke="#FEF3DB" stroke-miterlimit="10" width="11.25" height="11.25"/>
<rect x="129.5" y="219.5" fill="#FEF3DB" stroke="#FEF3DB" stroke-miterlimit="10" width="11.25" height="11.25"/>
<rect x="129.5" y="208.25" fill="#FEF3DB" stroke="#FEF3DB" stroke-miterlimit="10" width="11.25" height="11.25"/>
<rect x="129.5" y="197" fill="#FEF3DB" stroke="#FEF3DB" stroke-miterlimit="10" width="11.25" height="11.25"/>
<rect x="129.5" y="185.75" fill="#FEF3DB" stroke="#FEF3DB" stroke-miterlimit="10" width="11.25" height="11.25"/>
<rect x="129.5" y="174.5" fill="#FEF3DB" stroke="#FEF3DB" stroke-miterlimit="10" width="11.25" height="11.25"/>
<rect x="129.5" y="163.25" fill="#FEF3DB" stroke="#FEF3DB" stroke-miterlimit="10" width="11.25" height="11.25"/>
<rect x="129.5" y="152" fill="#FEF3DB" stroke="#FEF3DB" stroke-miterlimit="10" width="11.25" height="11.25"/>
<rect x="129.5" y="140.75" fill="#FEF3DB" stroke="#FEF3DB" stroke-miterlimit="10" width="11.25" height="11.25"/>
<rect x="129.5" y="129.5" fill="#FEF3DB" stroke="#FEF3DB" stroke-miterlimit="10" width="11.25" height="11.25"/>
<rect x="129.5" y="118.25" fill="#FEF3DB" stroke="#FEF3DB" stroke-miterlimit="10" width="11.25" height="11.25"/>
<rect x="129.5" y="107" fill="#FEF3DB" stroke="#FEF3DB" stroke-miterlimit="10" width="11.25" height="11.25"/>
<rect x="129.5" y="95.75" fill="#FEF3DB" stroke="#FEF3DB" stroke-miterlimit="10" width="11.25" height="11.25"/>
<rect x="129.5" y="84.5" fill="#D3B49F" stroke="#D3B49F" stroke-miterlimit="10" width="11.25" height="11.25"/>
<rect x="129.5" y="73.25" fill="#A17B5E" stroke="#A17B5E" stroke-miterlimit="10" width="11.25" height="11.25"/>
<rect x="129.5" y="62" fill="#371A11" stroke="#371A11" stroke-miterlimit="10" width="11.25" height="11.25"/>
<rect x="129.5" y="50.75" fill="#A17B5E" stroke="#A17B5E" stroke-miterlimit="10" width="11.25" height="11.25"/>
<rect x="129.5" y="39.5" fill="#A17B5E" stroke="#A17B5E" stroke-miterlimit="10" width="11.25" height="11.25"/>
<rect x="118.25" y="230.75" fill="#FEF3DB" stroke="#FEF3DB" stroke-miterlimit="10" width="11.25" height="11.25"/>
<rect x="118.25" y="219.5" fill="#FEF3DB" stroke="#FEF3DB" stroke-miterlimit="10" width="11.25" height="11.25"/>
<rect x="118.25" y="208.25" fill="#FEF3DB" stroke="#FEF3DB" stroke-miterlimit="10" width="11.25" height="11.25"/>
<rect x="118.25" y="197" fill="#FEF3DB" stroke="#FEF3DB" stroke-miterlimit="10" width="11.25" height="11.25"/>
<rect x="118.25" y="185.75" fill="#FEF3DB" stroke="#FEF3DB" stroke-miterlimit="10" width="11.25" height="11.25"/>
<rect x="118.25" y="174.5" fill="#FEF3DB" stroke="#FEF3DB" stroke-miterlimit="10" width="11.25" height="11.25"/>
<rect x="118.25" y="163.25" fill="#FEF3DB" stroke="#FEF3DB" stroke-miterlimit="10" width="11.25" height="11.25"/>
<rect x="118.25" y="152" fill="#FEF3DB" stroke="#FEF3DB" stroke-miterlimit="10" width="11.25" height="11.25"/>
<rect x="118.25" y="140.75" fill="#D3B49F" stroke="#D3B49F" stroke-miterlimit="10" width="11.25" height="11.25"/>
<rect x="118.25" y="129.5" fill="#FEF3DB" stroke="#FEF3DB" stroke-miterlimit="10" width="11.25" height="11.25"/>
<rect x="118.25" y="118.25" fill="#FEF3DB" stroke="#FEF3DB" stroke-miterlimit="10" width="11.25" height="11.25"/>
<rect x="118.25" y="107" fill="#FEF3DB" stroke="#FEF3DB" stroke-miterlimit="10" width="11.25" height="11.25"/>
<rect x="118.25" y="95.75" fill="#FEF3DB" stroke="#FEF3DB" stroke-miterlimit="10" width="11.25" height="11.25"/>
<rect x="118.25" y="84.5" fill="#D3B49F" stroke="#D3B49F" stroke-miterlimit="10" width="11.25" height="11.25"/>
<rect x="118.25" y="73.25" fill="#775441" stroke="#775441" stroke-miterlimit="10" width="11.25" height="11.25"/>
<rect x="118.25" y="62" fill="#371A11" stroke="#371A11" stroke-miterlimit="10" width="11.25" height="11.25"/>
<rect x="118.25" y="50.75" fill="#A17B5E" stroke="#A17B5E" stroke-miterlimit="10" width="11.25" height="11.25"/>
<rect x="118.25" y="39.5" fill="#A17B5E" stroke="#A17B5E" stroke-miterlimit="10" width="11.25" height="11.25"/>
<rect x="107" y="230.75" fill="#FEF3DB" stroke="#FEF3DB" stroke-miterlimit="10" width="11.25" height="11.25"/>
<rect x="107" y="219.5" fill="#FEF3DB" stroke="#FEF3DB" stroke-miterlimit="10" width="11.25" height="11.25"/>
<rect x="107" y="208.25" fill="#FEF3DB" stroke="#FEF3DB" stroke-miterlimit="10" width="11.25" height="11.25"/>
<rect x="107" y="197" fill="#FEF3DB" stroke="#FEF3DB" stroke-miterlimit="10" width="11.25" height="11.25"/>
<rect x="107" y="185.75" fill="#FEF3DB" stroke="#FEF3DB" stroke-miterlimit="10" width="11.25" height="11.25"/>
<rect x="107" y="174.5" fill="#FEF3DB" stroke="#FEF3DB" stroke-miterlimit="10" width="11.25" height="11.25"/>
<rect x="107" y="163.25" fill="#FEF3DB" stroke="#FEF3DB" stroke-miterlimit="10" width="11.25" height="11.25"/>
<rect x="107" y="152" fill="#D3B49F" stroke="#D3B49F" stroke-miterlimit="10" width="11.25" height="11.25"/>
<rect x="107" y="140.75" fill="#FEF3DB" stroke="#FEF3DB" stroke-miterlimit="10" width="11.25" height="11.25"/>
<rect x="107" y="129.5" fill="#FEF3DB" stroke="#FEF3DB" stroke-miterlimit="10" width="11.25" height="11.25"/>
<rect x="107" y="118.25" fill="#FEF3DB" stroke="#FEF3DB" stroke-miterlimit="10" width="11.25" height="11.25"/>
<rect x="107" y="107" fill="#D3B49F" stroke="#D3B49F" stroke-miterlimit="10" width="11.25" height="11.25"/>
<rect x="107" y="95.75" fill="#FEF3DB" stroke="#FEF3DB" stroke-miterlimit="10" width="11.25" height="11.25"/>
<rect x="107" y="84.5" fill="#FEF3DB" stroke="#FEF3DB" stroke-miterlimit="10" width="11.25" height="11.25"/>
<rect x="107" y="73.25" fill="#371A11" stroke="#371A11" stroke-miterlimit="10" width="11.25" height="11.25"/>
<rect x="107" y="62" fill="#D3B49F" stroke="#D3B49F" stroke-miterlimit="10" width="11.25" height="11.25"/>
<rect x="107" y="50.75" fill="#D3B49F" stroke="#D3B49F" stroke-miterlimit="10" width="11.25" height="11.25"/>
<rect x="107" y="39.5" fill="#775441" stroke="#775441" stroke-miterlimit="10" width="11.25" height="11.25"/>
<rect x="95.75" y="230.75" fill="#FEF3DB" stroke="#FEF3DB" stroke-miterlimit="10" width="11.25" height="11.25"/>
<rect x="95.75" y="219.5" fill="#FEF3DB" stroke="#FEF3DB" stroke-miterlimit="10" width="11.25" height="11.25"/>
<rect x="95.75" y="208.25" fill="#FEF3DB" stroke="#FEF3DB" stroke-miterlimit="10" width="11.25" height="11.25"/>
<rect x="95.75" y="197" fill="#FEF3DB" stroke="#FEF3DB" stroke-miterlimit="10" width="11.25" height="11.25"/>
<rect x="95.75" y="185.75" fill="#FEF3DB" stroke="#FEF3DB" stroke-miterlimit="10" width="11.25" height="11.25"/>
<rect x="95.75" y="174.5" fill="#FEF3DB" stroke="#FEF3DB" stroke-miterlimit="10" width="11.25" height="11.25"/>
<rect x="95.75" y="163.25" fill="#D3B49F" stroke="#D3B49F" stroke-miterlimit="10" width="11.25" height="11.25"/>
<rect x="95.75" y="152" fill="#D3B49F" stroke="#D3B49F" stroke-miterlimit="10" width="11.25" height="11.25"/>
<rect x="95.75" y="140.75" fill="#FEF3DB" stroke="#FEF3DB" stroke-miterlimit="10" width="11.25" height="11.25"/>
<rect x="95.75" y="129.5" fill="#FEF3DB" stroke="#FEF3DB" stroke-miterlimit="10" width="11.25" height="11.25"/>
<rect x="95.75" y="118.25" fill="#FEF3DB" stroke="#FEF3DB" stroke-miterlimit="10" width="11.25" height="11.25"/>
<rect x="95.75" y="107" fill="#371A11" stroke="#371A11" stroke-miterlimit="10" width="11.25" height="11.25"/>
<rect x="95.75" y="95.75" fill="#D3B49F" stroke="#D3B49F" stroke-miterlimit="10" width="11.25" height="11.25"/>
<rect x="95.75" y="84.5" fill="#FEF3DB" stroke="#FEF3DB" stroke-miterlimit="10" width="11.25" height="11.25"/>
<rect x="95.75" y="73.25" fill="#FEF3DB" stroke="#FEF3DB" stroke-miterlimit="10" width="11.25" height="11.25"/>
<rect x="95.75" y="62" fill="#D3B49F" stroke="#D3B49F" stroke-miterlimit="10" width="11.25" height="11.25"/>
<rect x="95.75" y="50.75" fill="#D3B49F" stroke="#D3B49F" stroke-miterlimit="10" width="11.25" height="11.25"/>
<rect x="95.75" y="39.5" fill="#775441" stroke="#775441" stroke-miterlimit="10" width="11.25" height="11.25"/>
<rect x="84.5" y="230.75" fill="#FEF3DB" stroke="#FEF3DB" stroke-miterlimit="10" width="11.25" height="11.25"/>
<rect x="84.5" y="219.5" fill="#FEF3DB" stroke="#FEF3DB" stroke-miterlimit="10" width="11.25" height="11.25"/>
<rect x="84.5" y="208.25" fill="#FEF3DB" stroke="#FEF3DB" stroke-miterlimit="10" width="11.25" height="11.25"/>
<rect x="84.5" y="197" fill="#FEF3DB" stroke="#FEF3DB" stroke-miterlimit="10" width="11.25" height="11.25"/>
<rect x="84.5" y="185.75" fill="#FEF3DB" stroke="#FEF3DB" stroke-miterlimit="10" width="11.25" height="11.25"/>
<rect x="84.5" y="174.5" fill="#D3B49F" stroke="#D3B49F" stroke-miterlimit="10" width="11.25" height="11.25"/>
<rect x="84.5" y="163.25" fill="#D3B49F" stroke="#D3B49F" stroke-miterlimit="10" width="11.25" height="11.25"/>
<rect x="84.5" y="152" fill="#D3B49F" stroke="#D3B49F" stroke-miterlimit="10" width="11.25" height="11.25"/>
<rect x="84.5" y="140.75" fill="#FEF3DB" stroke="#FEF3DB" stroke-miterlimit="10" width="11.25" height="11.25"/>
<rect x="84.5" y="129.5" fill="#FEF3DB" stroke="#FEF3DB" stroke-miterlimit="10" width="11.25" height="11.25"/>
<rect x="84.5" y="118.25" fill="#FEF3DB" stroke="#FEF3DB" stroke-miterlimit="10" width="11.25" height="11.25"/>
<rect x="84.5" y="107" fill="#FEF3DB" stroke="#FEF3DB" stroke-miterlimit="10" width="11.25" height="11.25"/>
<rect x="84.5" y="95.75" fill="#371A11" stroke="#371A11" stroke-miterlimit="10" width="11.25" height="11.25"/>
<rect x="84.5" y="84.5" fill="#FEF3DB" stroke="#FEF3DB" stroke-miterlimit="10" width="11.25" height="11.25"/>
<rect x="84.5" y="73.25" fill="#FEF3DB" stroke="#FEF3DB" stroke-miterlimit="10" width="11.25" height="11.25"/>
<rect x="84.5" y="62" fill="#FEF3DB" stroke="#FEF3DB" stroke-miterlimit="10" width="11.25" height="11.25"/>
<rect x="84.5" y="50.75" fill="#D3B49F" stroke="#D3B49F" stroke-miterlimit="10" width="11.25" height="11.25"/>
<rect x="84.5" y="39.5" fill="#775441" stroke="#775441" stroke-miterlimit="10" width="11.25" height="11.25"/>
<rect x="73.25" y="230.75" fill="#FEF3DB" stroke="#FEF3DB" stroke-miterlimit="10" width="11.25" height="11.25"/>
<rect x="73.25" y="219.5" fill="#FEF3DB" stroke="#FEF3DB" stroke-miterlimit="10" width="11.25" height="11.25"/>
<rect x="73.25" y="208.25" fill="#FEF3DB" stroke="#FEF3DB" stroke-miterlimit="10" width="11.25" height="11.25"/>
<rect x="73.25" y="197" fill="#FEF3DB" stroke="#FEF3DB" stroke-miterlimit="10" width="11.25" height="11.25"/>
<rect x="73.25" y="185.75" fill="#FEF3DB" stroke="#FEF3DB" stroke-miterlimit="10" width="11.25" height="11.25"/>
<rect x="73.25" y="174.5" fill="#D3B49F" stroke="#D3B49F" stroke-miterlimit="10" width="11.25" height="11.25"/>
<rect x="73.25" y="163.25" fill="#D3B49F" stroke="#D3B49F" stroke-miterlimit="10" width="11.25" height="11.25"/>
<rect x="73.25" y="152" fill="#D3B49F" stroke="#D3B49F" stroke-miterlimit="10" width="11.25" height="11.25"/>
<rect x="73.25" y="140.75" fill="#FEF3DB" stroke="#FEF3DB" stroke-miterlimit="10" width="11.25" height="11.25"/>
<rect x="73.25" y="129.5" fill="#FEF3DB" stroke="#FEF3DB" stroke-miterlimit="10" width="11.25" height="11.25"/>
<rect x="73.25" y="118.25" fill="#FEF3DB" stroke="#FEF3DB" stroke-miterlimit="10" width="11.25" height="11.25"/>
<rect x="73.25" y="107" fill="#371A11" stroke="#371A11" stroke-miterlimit="10" width="11.25" height="11.25"/>
<rect x="73.25" y="95.75" fill="#D3B49F" stroke="#D3B49F" stroke-miterlimit="10" width="11.25" height="11.25"/>
<rect x="73.25" y="84.5" fill="#FEF3DB" stroke="#FEF3DB" stroke-miterlimit="10" width="11.25" height="11.25"/>
<rect x="73.25" y="73.25" fill="#FEF3DB" stroke="#FEF3DB" stroke-miterlimit="10" width="11.25" height="11.25"/>
<rect x="73.25" y="62" fill="#D3B49F" stroke="#D3B49F" stroke-miterlimit="10" width="11.25" height="11.25"/>
<rect x="73.25" y="50.75" fill="#D3B49F" stroke="#D3B49F" stroke-miterlimit="10" width="11.25" height="11.25"/>
<rect x="73.25" y="39.5" fill="#A17B5E" stroke="#A17B5E" stroke-miterlimit="10" width="11.25" height="11.25"/>
<rect x="73.25" y="28.25" fill="#775441" stroke="#775441" stroke-miterlimit="10" width="11.25" height="11.25"/>
<rect x="62" y="230.75" fill="#D3B49F" stroke="#D3B49F" stroke-miterlimit="10" width="11.25" height="11.25"/>
<rect x="62" y="219.5" fill="#FEF3DB" stroke="#FEF3DB" stroke-miterlimit="10" width="11.25" height="11.25"/>
<rect x="62" y="208.25" fill="#FEF3DB" stroke="#FEF3DB" stroke-miterlimit="10" width="11.25" height="11.25"/>
<rect x="62" y="197" fill="#FEF3DB" stroke="#FEF3DB" stroke-miterlimit="10" width="11.25" height="11.25"/>
<rect x="62" y="185.75" fill="#D3B49F" stroke="#D3B49F" stroke-miterlimit="10" width="11.25" height="11.25"/>
<rect x="62" y="174.5" fill="#D3B49F" stroke="#D3B49F" stroke-miterlimit="10" width="11.25" height="11.25"/>
<rect x="62" y="163.25" fill="#775441" stroke="#775441" stroke-miterlimit="10" width="11.25" height="11.25"/>
<rect x="62" y="152" fill="#D3B49F" stroke="#D3B49F" stroke-miterlimit="10" width="11.25" height="11.25"/>
<rect x="62" y="140.75" fill="#D3B49F" stroke="#D3B49F" stroke-miterlimit="10" width="11.25" height="11.25"/>
<rect x="62" y="129.5" fill="#FEF3DB" stroke="#FEF3DB" stroke-miterlimit="10" width="11.25" height="11.25"/>
<rect x="62" y="118.25" fill="#FEF3DB" stroke="#FEF3DB" stroke-miterlimit="10" width="11.25" height="11.25"/>
<rect x="62" y="107" fill="#FEF3DB" stroke="#FEF3DB" stroke-miterlimit="10" width="11.25" height="11.25"/>
<rect x="62" y="95.75" fill="#FEF3DB" stroke="#FEF3DB" stroke-miterlimit="10" width="11.25" height="11.25"/>
<rect x="62" y="84.5" fill="#D3B49F" stroke="#D3B49F" stroke-miterlimit="10" width="11.25" height="11.25"/>
<rect x="62" y="73.25" fill="#371A11" stroke="#371A11" stroke-miterlimit="10" width="11.25" height="11.25"/>
<rect x="62" y="62" fill="#775441" stroke="#775441" stroke-miterlimit="10" width="11.25" height="11.25"/>
<rect x="62" y="50.75" fill="#A17B5E" stroke="#A17B5E" stroke-miterlimit="10" width="11.25" height="11.25"/>
<rect x="62" y="39.5" fill="#FEF3DB" stroke="#FEF3DB" stroke-miterlimit="10" width="11.25" height="11.25"/>
<rect x="62" y="28.25" fill="#FEF3DB" stroke="#FEF3DB" stroke-miterlimit="10" width="11.25" height="11.25"/>
<rect x="62" y="17" fill="#D3B49F" stroke="#D3B49F" stroke-miterlimit="10" width="11.25" height="11.25"/>
<rect x="50.75" y="230.75" fill="#A17B5E" stroke="#A17B5E" stroke-miterlimit="10" width="11.25" height="11.25"/>
<rect x="50.75" y="219.5" fill="#D3B49F" stroke="#D3B49F" stroke-miterlimit="10" width="11.25" height="11.25"/>
<rect x="50.75" y="208.25" fill="#D3B49F" stroke="#D3B49F" stroke-miterlimit="10" width="11.25" height="11.25"/>
<rect x="50.75" y="197" fill="#D3B49F" stroke="#D3B49F" stroke-miterlimit="10" width="11.25" height="11.25"/>
<rect x="50.75" y="185.75" fill="#D3B49F" stroke="#D3B49F" stroke-miterlimit="10" width="11.25" height="11.25"/>
<rect x="50.75" y="174.5" fill="#775441" stroke="#775441" stroke-miterlimit="10" width="11.25" height="11.25"/>
<rect x="50.75" y="163.25" fill="#775441" stroke="#775441" stroke-miterlimit="10" width="11.25" height="11.25"/>
<rect x="50.75" y="152" fill="#775441" stroke="#775441" stroke-miterlimit="10" width="11.25" height="11.25"/>
<rect x="50.75" y="140.75" fill="#D3B49F" stroke="#D3B49F" stroke-miterlimit="10" width="11.25" height="11.25"/>
<rect x="50.75" y="129.5" fill="#D3B49F" stroke="#D3B49F" stroke-miterlimit="10" width="11.25" height="11.25"/>
<rect x="50.75" y="118.25" fill="#FEF3DB" stroke="#FEF3DB" stroke-miterlimit="10" width="11.25" height="11.25"/>
<rect x="50.75" y="107" fill="#FEF3DB" stroke="#FEF3DB" stroke-miterlimit="10" width="11.25" height="11.25"/>
<rect x="50.75" y="95.75" fill="#FEF3DB" stroke="#FEF3DB" stroke-miterlimit="10" width="11.25" height="11.25"/>
<rect x="50.75" y="84.5" fill="#D3B49F" stroke="#D3B49F" stroke-miterlimit="10" width="11.25" height="11.25"/>
<rect x="50.75" y="73.25" fill="#775441" stroke="#775441" stroke-miterlimit="10" width="11.25" height="11.25"/>
<rect x="50.75" y="62" fill="#371A11" stroke="#371A11" stroke-miterlimit="10" width="11.25" height="11.25"/>
<rect x="50.75" y="50.75" fill="#A17B5E" stroke="#A17B5E" stroke-miterlimit="10" width="11.25" height="11.25"/>
<rect x="50.75" y="39.5" fill="#D3B49F" stroke="#D3B49F" stroke-miterlimit="10" width="11.25" height="11.25"/>
<rect x="50.75" y="28.25" fill="#FEF3DB" stroke="#FEF3DB" stroke-miterlimit="10" width="11.25" height="11.25"/>
<rect x="50.75" y="17" fill="#FEF3DB" stroke="#FEF3DB" stroke-miterlimit="10" width="11.25" height="11.25"/>
<rect x="50.75" y="5.75" fill="#775441" stroke="#775441" stroke-miterlimit="10" width="11.25" height="11.25"/>
<rect x="39.5" y="219.5" fill="#A17B5E" stroke="#A17B5E" stroke-miterlimit="10" width="11.25" height="11.25"/>
<rect x="39.5" y="208.25" fill="#A17B5E" stroke="#A17B5E" stroke-miterlimit="10" width="11.25" height="11.25"/>
<rect x="39.5" y="197" fill="#A17B5E" stroke="#A17B5E" stroke-miterlimit="10" width="11.25" height="11.25"/>
<rect x="39.5" y="185.75" fill="#A17B5E" stroke="#A17B5E" stroke-miterlimit="10" width="11.25" height="11.25"/>
<rect x="39.5" y="174.5" fill="#A17B5E" stroke="#A17B5E" stroke-miterlimit="10" width="11.25" height="11.25"/>
<rect x="39.5" y="163.25" fill="#775441" stroke="#775441" stroke-miterlimit="10" width="11.25" height="11.25"/>
<rect x="39.5" y="152" fill="#775441" stroke="#775441" stroke-miterlimit="10" width="11.25" height="11.25"/>
<rect x="39.5" y="140.75" fill="#775441" stroke="#775441" stroke-miterlimit="10" width="11.25" height="11.25"/>
<rect x="39.5" y="129.5" fill="#D3B49F" stroke="#D3B49F" stroke-miterlimit="10" width="11.25" height="11.25"/>
<rect x="39.5" y="118.25" fill="#D3B49F" stroke="#D3B49F" stroke-miterlimit="10" width="11.25" height="11.25"/>
<rect x="39.5" y="107" fill="#D3B49F" stroke="#D3B49F" stroke-miterlimit="10" width="11.25" height="11.25"/>
<rect x="39.5" y="95.75" fill="#D3B49F" stroke="#D3B49F" stroke-miterlimit="10" width="11.25" height="11.25"/>
<rect x="39.5" y="84.5" fill="#D3B49F" stroke="#D3B49F" stroke-miterlimit="10" width="11.25" height="11.25"/>
<rect x="39.5" y="73.25" fill="#371A11" stroke="#371A11" stroke-miterlimit="10" width="11.25" height="11.25"/>
<rect x="39.5" y="62" fill="#D3B49F" stroke="#D3B49F" stroke-miterlimit="10" width="11.25" height="11.25"/>
<rect x="39.5" y="50.75" fill="#775441" stroke="#775441" stroke-miterlimit="10" width="11.25" height="11.25"/>
<rect x="39.5" y="39.5" fill="#D3B49F" stroke="#D3B49F" stroke-miterlimit="10" width="11.25" height="11.25"/>
<rect x="39.5" y="28.25" fill="#D3B49F" stroke="#D3B49F" stroke-miterlimit="10" width="11.25" height="11.25"/>
<rect x="39.5" y="17" fill="#775441" stroke="#775441" stroke-miterlimit="10" width="11.25" height="11.25"/>
<rect x="28.25" y="129.5" fill="#775441" stroke="#775441" stroke-miterlimit="10" width="11.25" height="11.25"/>
<rect x="28.25" y="118.25" fill="#775441" stroke="#775441" stroke-miterlimit="10" width="11.25" height="11.25"/>
<rect x="28.25" y="107" fill="#A17B5E" stroke="#A17B5E" stroke-miterlimit="10" width="11.25" height="11.25"/>
<rect x="28.25" y="95.75" fill="#A17B5E" stroke="#A17B5E" stroke-miterlimit="10" width="11.25" height="11.25"/>
<rect x="28.25" y="84.5" fill="#A17B5E" stroke="#A17B5E" stroke-miterlimit="10" width="11.25" height="11.25"/>
<rect x="28.25" y="73.25" fill="#A17B5E" stroke="#A17B5E" stroke-miterlimit="10" width="11.25" height="11.25"/>
</svg>
