<?xml version="1.0" encoding="utf-8"?>
<!-- Generator: Adobe Illustrator 15.0.1, SVG Export Plug-In . SVG Version: 6.00 Build 0)  -->
<!DOCTYPE svg PUBLIC "-//W3C//DTD SVG 1.1//EN" "http://www.w3.org/Graphics/SVG/1.1/DTD/svg11.dtd" [
	<!ENTITY ns_extend "http://ns.adobe.com/Extensibility/1.0/">
	<!ENTITY ns_ai "http://ns.adobe.com/AdobeIllustrator/10.0/">
	<!ENTITY ns_graphs "http://ns.adobe.com/Graphs/1.0/">
	<!ENTITY ns_vars "http://ns.adobe.com/Variables/1.0/">
	<!ENTITY ns_imrep "http://ns.adobe.com/ImageReplacement/1.0/">
	<!ENTITY ns_sfw "http://ns.adobe.com/SaveForWeb/1.0/">
	<!ENTITY ns_custom "http://ns.adobe.com/GenericCustomNamespace/1.0/">
	<!ENTITY ns_adobe_xpath "http://ns.adobe.com/XPath/1.0/">
]>
<svg version="1.1" xmlns:x="&ns_extend;" xmlns:i="&ns_ai;" xmlns:graph="&ns_graphs;"
	 xmlns="http://www.w3.org/2000/svg" xmlns:xlink="http://www.w3.org/1999/xlink" x="0px" y="0px" width="218.601px"
	 height="218.601px" viewBox="0 0 218.601 218.601" enable-background="new 0 0 218.601 218.601" xml:space="preserve">
<metadata>
	<sfw  xmlns="&ns_sfw;">
		<slices></slices>
		<sliceSourceBounds  y="-906.057" x="-201.999" width="2733.2" height="2102.461" bottomLeftOrigin="true"></sliceSourceBounds>
	</sfw>
</metadata>
<g id="Layer_2" display="none">
	
		<image display="inline" overflow="visible" width="650" height="500" xlink:href="../../../../17_wsjabba.jpg"  transform="matrix(4.2049 0 0 4.2049 -433.3984 -1427.8037)">
	</image>
</g>
<g id="Layer_1">
	<rect x="207.351" y="207.351" fill="#FEF3DC" stroke="#FEF3DC" stroke-miterlimit="10" width="11.25" height="11.25"/>
	<rect x="207.351" y="196.101" fill="#FEF3DC" stroke="#FEF3DC" stroke-miterlimit="10" width="11.25" height="11.25"/>
	<rect x="207.351" y="184.851" fill="#FEF3DC" stroke="#FEF3DC" stroke-miterlimit="10" width="11.25" height="11.25"/>
	<rect x="207.351" y="173.601" fill="#FEF3DC" stroke="#FEF3DC" stroke-miterlimit="10" width="11.25" height="11.25"/>
	<rect x="207.351" y="162.351" fill="#FEF3DC" stroke="#FEF3DC" stroke-miterlimit="10" width="11.25" height="11.25"/>
	<rect x="207.351" y="151.101" fill="#D3C2A9" stroke="#D3C2A9" stroke-miterlimit="10" width="11.25" height="11.25"/>
	<rect x="207.351" y="139.851" fill="#7A563C" stroke="#7A563C" stroke-miterlimit="10" width="11.25" height="11.25"/>
	<rect x="207.351" y="128.601" fill="#5A3A2B" stroke="#5A3A2B" stroke-miterlimit="10" width="11.25" height="11.25"/>
	<rect x="207.351" y="117.351" fill="#9E7859" stroke="#9E7859" stroke-miterlimit="10" width="11.25" height="11.25"/>
	<rect x="207.351" y="106.101" fill="#9E7859" stroke="#9E7859" stroke-miterlimit="10" width="11.25" height="11.25"/>
	<rect x="207.351" y="94.851" fill="#9E7859" stroke="#9E7859" stroke-miterlimit="10" width="11.25" height="11.25"/>
	<rect x="207.351" y="83.601" fill="#5A3A2B" stroke="#5A3A2B" stroke-miterlimit="10" width="11.25" height="11.25"/>
	<rect x="207.351" y="72.351" fill="#9E7859" stroke="#9E7859" stroke-miterlimit="10" width="11.25" height="11.25"/>
	<rect x="207.351" y="61.101" fill="#9E7859" stroke="#9E7859" stroke-miterlimit="10" width="11.25" height="11.25"/>
	<rect x="207.351" y="49.851" fill="#9E7859" stroke="#9E7859" stroke-miterlimit="10" width="11.25" height="11.25"/>
	<rect x="207.351" y="38.601" fill="#7A563C" stroke="#7A563C" stroke-miterlimit="10" width="11.25" height="11.25"/>
	<rect x="207.351" y="27.351" fill="#5A3A2B" stroke="#5A3A2B" stroke-miterlimit="10" width="11.25" height="11.25"/>
	<rect x="196.101" y="207.351" fill="#FEF3DC" stroke="#FEF3DC" stroke-miterlimit="10" width="11.25" height="11.25"/>
	<rect x="196.101" y="196.101" fill="#FEF3DC" stroke="#FEF3DC" stroke-miterlimit="10" width="11.25" height="11.25"/>
	<rect x="196.101" y="184.851" fill="#FEF3DC" stroke="#FEF3DC" stroke-miterlimit="10" width="11.25" height="11.25"/>
	<rect x="196.101" y="173.601" fill="#FEF3DC" stroke="#FEF3DC" stroke-miterlimit="10" width="11.25" height="11.25"/>
	<rect x="196.101" y="162.351" fill="#D3C2A9" stroke="#D3C2A9" stroke-miterlimit="10" width="11.25" height="11.25"/>
	<rect x="196.101" y="151.101" fill="#C1AB85" stroke="#C1AB85" stroke-miterlimit="10" width="11.25" height="11.25"/>
	<rect x="196.101" y="139.851" fill="#5A3A2B" stroke="#5A3A2B" stroke-miterlimit="10" width="11.25" height="11.25"/>
	<rect x="196.101" y="128.601" fill="#9E7859" stroke="#9E7859" stroke-miterlimit="10" width="11.25" height="11.25"/>
	<rect x="196.101" y="117.351" fill="#9E7859" stroke="#9E7859" stroke-miterlimit="10" width="11.25" height="11.25"/>
	<rect x="196.101" y="106.101" fill="#9E7859" stroke="#9E7859" stroke-miterlimit="10" width="11.25" height="11.25"/>
	<rect x="196.101" y="94.851" fill="#9E7859" stroke="#9E7859" stroke-miterlimit="10" width="11.25" height="11.25"/>
	<rect x="196.101" y="83.601" fill="#9E7859" stroke="#9E7859" stroke-miterlimit="10" width="11.25" height="11.25"/>
	<rect x="196.101" y="72.351" fill="#5A3A2B" stroke="#5A3A2B" stroke-miterlimit="10" width="11.25" height="11.25"/>
	<rect x="196.101" y="61.101" fill="#9E7859" stroke="#9E7859" stroke-miterlimit="10" width="11.25" height="11.25"/>
	<rect x="196.101" y="49.851" fill="#7A563C" stroke="#7A563C" stroke-miterlimit="10" width="11.25" height="11.25"/>
	<rect x="196.101" y="38.601" fill="#5A3A2B" stroke="#5A3A2B" stroke-miterlimit="10" width="11.25" height="11.25"/>
	<rect x="184.851" y="207.351" fill="#FEF3DC" stroke="#FEF3DC" stroke-miterlimit="10" width="11.25" height="11.25"/>
	<rect x="184.851" y="196.101" fill="#FEF3DC" stroke="#FEF3DC" stroke-miterlimit="10" width="11.25" height="11.25"/>
	<rect x="184.851" y="184.851" fill="#FEF3DC" stroke="#FEF3DC" stroke-miterlimit="10" width="11.25" height="11.25"/>
	<rect x="184.851" y="173.601" fill="#FEF3DC" stroke="#FEF3DC" stroke-miterlimit="10" width="11.25" height="11.25"/>
	<rect x="184.851" y="162.351" fill="#C1AB85" stroke="#C1AB85" stroke-miterlimit="10" width="11.25" height="11.25"/>
	<rect x="184.851" y="151.101" fill="#C1AB85" stroke="#C1AB85" stroke-miterlimit="10" width="11.25" height="11.25"/>
	<rect x="184.851" y="139.851" fill="#9E7859" stroke="#9E7859" stroke-miterlimit="10" width="11.25" height="11.25"/>
	<rect x="184.851" y="128.601" fill="#C1AB85" stroke="#C1AB85" stroke-miterlimit="10" width="11.25" height="11.25"/>
	<rect x="184.851" y="117.351" fill="#C1AB85" stroke="#C1AB85" stroke-miterlimit="10" width="11.25" height="11.25"/>
	<rect x="184.851" y="106.101" fill="#C1AB85" stroke="#C1AB85" stroke-miterlimit="10" width="11.25" height="11.25"/>
	<rect x="184.851" y="94.851" fill="#9E7859" stroke="#9E7859" stroke-miterlimit="10" width="11.25" height="11.25"/>
	<rect x="184.851" y="83.601" fill="#9E7859" stroke="#9E7859" stroke-miterlimit="10" width="11.25" height="11.25"/>
	<rect x="184.851" y="72.351" fill="#9E7859" stroke="#9E7859" stroke-miterlimit="10" width="11.25" height="11.25"/>
	<rect x="184.851" y="61.101" fill="#9E7859" stroke="#9E7859" stroke-miterlimit="10" width="11.25" height="11.25"/>
	<rect x="184.851" y="49.851" fill="#5A3A2B" stroke="#5A3A2B" stroke-miterlimit="10" width="11.25" height="11.25"/>
	<rect x="173.601" y="207.351" fill="#FEF3DC" stroke="#FEF3DC" stroke-miterlimit="10" width="11.25" height="11.25"/>
	<rect x="173.601" y="196.101" fill="#FEF3DC" stroke="#FEF3DC" stroke-miterlimit="10" width="11.25" height="11.25"/>
	<rect x="173.601" y="184.851" fill="#FEF3DC" stroke="#FEF3DC" stroke-miterlimit="10" width="11.25" height="11.25"/>
	<rect x="173.601" y="173.601" fill="#FEF3DC" stroke="#FEF3DC" stroke-miterlimit="10" width="11.25" height="11.25"/>
	<rect x="173.601" y="162.351" fill="#5A3A2B" stroke="#5A3A2B" stroke-miterlimit="10" width="11.25" height="11.25"/>
	<rect x="173.601" y="151.101" fill="#C1AB85" stroke="#C1AB85" stroke-miterlimit="10" width="11.25" height="11.25"/>
	<rect x="173.601" y="139.851" fill="#D3C2A9" stroke="#D3C2A9" stroke-miterlimit="10" width="11.25" height="11.25"/>
	<rect x="173.601" y="128.601" fill="#D3C2A9" stroke="#D3C2A9" stroke-miterlimit="10" width="11.25" height="11.25"/>
	<rect x="173.601" y="117.351" fill="#D3C2A9" stroke="#D3C2A9" stroke-miterlimit="10" width="11.25" height="11.25"/>
	<rect x="173.601" y="106.101" fill="#D3C2A9" stroke="#D3C2A9" stroke-miterlimit="10" width="11.25" height="11.25"/>
	<rect x="173.601" y="94.851" fill="#4F3D2D" stroke="#4F3D2D" stroke-miterlimit="10" width="11.25" height="11.25"/>
	<rect x="173.601" y="83.601" fill="#7A563C" stroke="#7A563C" stroke-miterlimit="10" width="11.25" height="11.25"/>
	<rect x="173.601" y="72.351" fill="#9E7859" stroke="#9E7859" stroke-miterlimit="10" width="11.25" height="11.25"/>
	<rect x="173.601" y="61.101" fill="#9E7859" stroke="#9E7859" stroke-miterlimit="10" width="11.25" height="11.25"/>
	<rect x="173.601" y="49.851" fill="#5A3A2B" stroke="#5A3A2B" stroke-miterlimit="10" width="11.25" height="11.25"/>
	<rect x="162.351" y="207.351" fill="#FEF3DC" stroke="#FEF3DC" stroke-miterlimit="10" width="11.25" height="11.25"/>
	<rect x="162.351" y="196.101" fill="#FEF3DC" stroke="#FEF3DC" stroke-miterlimit="10" width="11.25" height="11.25"/>
	<rect x="162.351" y="184.851" fill="#FEF3DC" stroke="#FEF3DC" stroke-miterlimit="10" width="11.25" height="11.25"/>
	<rect x="162.351" y="173.601" fill="#FEF3DC" stroke="#FEF3DC" stroke-miterlimit="10" width="11.25" height="11.25"/>
	<rect x="162.351" y="162.351" fill="#5A3A2B" stroke="#5A3A2B" stroke-miterlimit="10" width="11.25" height="11.25"/>
	<rect x="162.351" y="151.101" fill="#D3C2A9" stroke="#D3C2A9" stroke-miterlimit="10" width="11.25" height="11.25"/>
	<rect x="162.351" y="139.851" fill="#D3C2A9" stroke="#D3C2A9" stroke-miterlimit="10" width="11.25" height="11.25"/>
	<rect x="162.351" y="128.601" fill="#FEF3DC" stroke="#FEF3DC" stroke-miterlimit="10" width="11.25" height="11.25"/>
	<rect x="162.351" y="117.351" fill="#FEF3DC" stroke="#FEF3DC" stroke-miterlimit="10" width="11.25" height="11.25"/>
	<rect x="162.351" y="106.101" fill="#D3C2A9" stroke="#D3C2A9" stroke-miterlimit="10" width="11.25" height="11.25"/>
	<rect x="162.351" y="94.851" fill="#D3C2A9" stroke="#D3C2A9" stroke-miterlimit="10" width="11.25" height="11.25"/>
	<rect x="162.351" y="83.601" fill="#4F3D2D" stroke="#4F3D2D" stroke-miterlimit="10" width="11.25" height="11.25"/>
	<rect x="162.351" y="72.351" fill="#9E7859" stroke="#9E7859" stroke-miterlimit="10" width="11.25" height="11.25"/>
	<rect x="162.351" y="61.101" fill="#9E7859" stroke="#9E7859" stroke-miterlimit="10" width="11.25" height="11.25"/>
	<rect x="162.351" y="49.851" fill="#7A563C" stroke="#7A563C" stroke-miterlimit="10" width="11.25" height="11.25"/>
	<rect x="162.351" y="38.601" fill="#5A3A2B" stroke="#5A3A2B" stroke-miterlimit="10" width="11.25" height="11.25"/>
	<rect x="151.101" y="207.351" fill="#FEF3DC" stroke="#FEF3DC" stroke-miterlimit="10" width="11.25" height="11.25"/>
	<rect x="151.101" y="196.101" fill="#FEF3DC" stroke="#FEF3DC" stroke-miterlimit="10" width="11.25" height="11.25"/>
	<rect x="151.101" y="184.851" fill="#FEF3DC" stroke="#FEF3DC" stroke-miterlimit="10" width="11.25" height="11.25"/>
	<rect x="151.101" y="173.601" fill="#FEF3DC" stroke="#FEF3DC" stroke-miterlimit="10" width="11.25" height="11.25"/>
	<rect x="151.101" y="162.351" fill="#FEF3DC" stroke="#FEF3DC" stroke-miterlimit="10" width="11.25" height="11.25"/>
	<rect x="151.101" y="151.101" fill="#FEF3DC" stroke="#FEF3DC" stroke-miterlimit="10" width="11.25" height="11.25"/>
	<rect x="151.101" y="139.851" fill="#FEF3DC" stroke="#FEF3DC" stroke-miterlimit="10" width="11.25" height="11.25"/>
	<rect x="151.101" y="128.601" fill="#FEF3DC" stroke="#FEF3DC" stroke-miterlimit="10" width="11.25" height="11.25"/>
	<rect x="151.101" y="117.351" fill="#FEF3DC" stroke="#FEF3DC" stroke-miterlimit="10" width="11.25" height="11.25"/>
	<rect x="151.101" y="106.101" fill="#FEF3DC" stroke="#FEF3DC" stroke-miterlimit="10" width="11.25" height="11.25"/>
	<rect x="151.101" y="94.851" fill="#FEF3DC" stroke="#FEF3DC" stroke-miterlimit="10" width="11.25" height="11.25"/>
	<rect x="151.101" y="83.601" fill="#4F3D2D" stroke="#4F3D2D" stroke-miterlimit="10" width="11.25" height="11.25"/>
	<rect x="151.101" y="72.351" fill="#7A563C" stroke="#7A563C" stroke-miterlimit="10" width="11.25" height="11.25"/>
	<rect x="151.101" y="61.101" fill="#9E7859" stroke="#9E7859" stroke-miterlimit="10" width="11.25" height="11.25"/>
	<rect x="151.101" y="49.851" fill="#7A563C" stroke="#7A563C" stroke-miterlimit="10" width="11.25" height="11.25"/>
	<rect x="151.101" y="38.601" fill="#5A3A2B" stroke="#5A3A2B" stroke-miterlimit="10" width="11.25" height="11.25"/>
	<rect x="139.851" y="207.351" fill="#FEF3DC" stroke="#FEF3DC" stroke-miterlimit="10" width="11.25" height="11.25"/>
	<rect x="139.851" y="196.101" fill="#FEF3DC" stroke="#FEF3DC" stroke-miterlimit="10" width="11.25" height="11.25"/>
	<rect x="139.851" y="184.851" fill="#FEF3DC" stroke="#FEF3DC" stroke-miterlimit="10" width="11.25" height="11.25"/>
	<rect x="139.851" y="173.601" fill="#FEF3DC" stroke="#FEF3DC" stroke-miterlimit="10" width="11.25" height="11.25"/>
	<rect x="139.851" y="162.351" fill="#FEF3DC" stroke="#FEF3DC" stroke-miterlimit="10" width="11.25" height="11.25"/>
	<rect x="139.851" y="151.101" fill="#FEF3DC" stroke="#FEF3DC" stroke-miterlimit="10" width="11.25" height="11.25"/>
	<rect x="139.851" y="139.851" fill="#FEF3DC" stroke="#FEF3DC" stroke-miterlimit="10" width="11.25" height="11.25"/>
	<rect x="139.851" y="128.601" fill="#FEF3DC" stroke="#FEF3DC" stroke-miterlimit="10" width="11.25" height="11.25"/>
	<rect x="139.851" y="117.351" fill="#755F4E" stroke="#755F4E" stroke-miterlimit="10" width="11.25" height="11.25"/>
	<rect x="139.851" y="106.101" fill="#755F4E" stroke="#755F4E" stroke-miterlimit="10" width="11.25" height="11.25"/>
	<rect x="139.851" y="94.851" fill="#FEF3DC" stroke="#FEF3DC" stroke-miterlimit="10" width="11.25" height="11.25"/>
	<rect x="139.851" y="83.601" fill="#D3C2A9" stroke="#D3C2A9" stroke-miterlimit="10" width="11.25" height="11.25"/>
	<rect x="139.851" y="72.351" fill="#7A563C" stroke="#7A563C" stroke-miterlimit="10" width="11.25" height="11.25"/>
	<rect x="139.851" y="61.101" fill="#9E7859" stroke="#9E7859" stroke-miterlimit="10" width="11.25" height="11.25"/>
	<rect x="139.851" y="49.851" fill="#9E7859" stroke="#9E7859" stroke-miterlimit="10" width="11.25" height="11.25"/>
	<rect x="139.851" y="38.601" fill="#5A3A2B" stroke="#5A3A2B" stroke-miterlimit="10" width="11.25" height="11.25"/>
	<rect x="139.851" y="27.351" fill="#5A3A2B" stroke="#5A3A2B" stroke-miterlimit="10" width="11.25" height="11.25"/>
	<rect x="128.601" y="207.351" fill="#FEF3DC" stroke="#FEF3DC" stroke-miterlimit="10" width="11.25" height="11.25"/>
	<rect x="128.601" y="196.101" fill="#FEF3DC" stroke="#FEF3DC" stroke-miterlimit="10" width="11.25" height="11.25"/>
	<rect x="128.601" y="184.851" fill="#FEF3DC" stroke="#FEF3DC" stroke-miterlimit="10" width="11.25" height="11.25"/>
	<rect x="128.601" y="173.601" fill="#FEF3DC" stroke="#FEF3DC" stroke-miterlimit="10" width="11.25" height="11.25"/>
	<rect x="128.601" y="162.351" fill="#FEF3DC" stroke="#FEF3DC" stroke-miterlimit="10" width="11.25" height="11.25"/>
	<rect x="128.601" y="151.101" fill="#FEF3DC" stroke="#FEF3DC" stroke-miterlimit="10" width="11.25" height="11.25"/>
	<rect x="128.601" y="139.851" fill="#FEF3DC" stroke="#FEF3DC" stroke-miterlimit="10" width="11.25" height="11.25"/>
	<rect x="128.601" y="128.601" fill="#FEF3DC" stroke="#FEF3DC" stroke-miterlimit="10" width="11.25" height="11.25"/>
	<rect x="128.601" y="117.351" fill="#4F3D2D" stroke="#4F3D2D" stroke-miterlimit="10" width="11.25" height="11.25"/>
	<rect x="128.601" y="106.101" fill="#FEF3DC" stroke="#FEF3DC" stroke-miterlimit="10" width="11.25" height="11.25"/>
	<rect x="128.601" y="94.851" fill="#D3C2A9" stroke="#D3C2A9" stroke-miterlimit="10" width="11.25" height="11.25"/>
	<rect x="128.601" y="83.601" fill="#D3C2A9" stroke="#D3C2A9" stroke-miterlimit="10" width="11.25" height="11.25"/>
	<rect x="128.601" y="72.351" fill="#C1AB85" stroke="#C1AB85" stroke-miterlimit="10" width="11.25" height="11.25"/>
	<rect x="128.601" y="61.101" fill="#9E7859" stroke="#9E7859" stroke-miterlimit="10" width="11.25" height="11.25"/>
	<rect x="128.601" y="49.851" fill="#9E7859" stroke="#9E7859" stroke-miterlimit="10" width="11.25" height="11.25"/>
	<rect x="128.601" y="38.601" fill="#5A3A2B" stroke="#5A3A2B" stroke-miterlimit="10" width="11.25" height="11.25"/>
	<rect x="128.601" y="27.351" fill="#7A563C" stroke="#7A563C" stroke-miterlimit="10" width="11.25" height="11.25"/>
	<rect x="128.601" y="16.101" fill="#5A3A2B" stroke="#5A3A2B" stroke-miterlimit="10" width="11.25" height="11.25"/>
	<rect x="117.351" y="207.351" fill="#FEF3DC" stroke="#FEF3DC" stroke-miterlimit="10" width="11.25" height="11.25"/>
	<rect x="117.351" y="196.101" fill="#FEF3DC" stroke="#FEF3DC" stroke-miterlimit="10" width="11.25" height="11.25"/>
	<rect x="117.351" y="184.851" fill="#FEF3DC" stroke="#FEF3DC" stroke-miterlimit="10" width="11.25" height="11.25"/>
	<rect x="117.351" y="173.601" fill="#FEF3DC" stroke="#FEF3DC" stroke-miterlimit="10" width="11.25" height="11.25"/>
	<rect x="117.351" y="162.351" fill="#FEF3DC" stroke="#FEF3DC" stroke-miterlimit="10" width="11.25" height="11.25"/>
	<rect x="117.351" y="151.101" fill="#FEF3DC" stroke="#FEF3DC" stroke-miterlimit="10" width="11.25" height="11.25"/>
	<rect x="117.351" y="139.851" fill="#FEF3DC" stroke="#FEF3DC" stroke-miterlimit="10" width="11.25" height="11.25"/>
	<rect x="117.351" y="128.601" fill="#FEF3DC" stroke="#FEF3DC" stroke-miterlimit="10" width="11.25" height="11.25"/>
	<rect x="117.351" y="117.351" fill="#755F4E" stroke="#755F4E" stroke-miterlimit="10" width="11.25" height="11.25"/>
	<rect x="117.351" y="106.101" fill="#FEF3DC" stroke="#FEF3DC" stroke-miterlimit="10" width="11.25" height="11.25"/>
	<rect x="117.351" y="94.851" fill="#4F3D2D" stroke="#4F3D2D" stroke-miterlimit="10" width="11.25" height="11.25"/>
	<rect x="117.351" y="83.601" fill="#D3C2A9" stroke="#D3C2A9" stroke-miterlimit="10" width="11.25" height="11.25"/>
	<rect x="117.351" y="72.351" fill="#D3C2A9" stroke="#D3C2A9" stroke-miterlimit="10" width="11.25" height="11.25"/>
	<rect x="117.351" y="61.101" fill="#C1AB85" stroke="#C1AB85" stroke-miterlimit="10" width="11.25" height="11.25"/>
	<rect x="117.351" y="49.851" fill="#9E7859" stroke="#9E7859" stroke-miterlimit="10" width="11.25" height="11.25"/>
	<rect x="117.351" y="38.601" fill="#5A3A2B" stroke="#5A3A2B" stroke-miterlimit="10" width="11.25" height="11.25"/>
	<rect x="117.351" y="27.351" fill="#9E7859" stroke="#9E7859" stroke-miterlimit="10" width="11.25" height="11.25"/>
	<rect x="117.351" y="16.101" fill="#7A563C" stroke="#7A563C" stroke-miterlimit="10" width="11.25" height="11.25"/>
	<rect x="117.351" y="4.851" fill="#5A3A2B" stroke="#5A3A2B" stroke-miterlimit="10" width="11.25" height="11.25"/>
	<rect x="106.101" y="207.351" fill="#FEF3DC" stroke="#FEF3DC" stroke-miterlimit="10" width="11.25" height="11.25"/>
	<rect x="106.101" y="196.101" fill="#FEF3DC" stroke="#FEF3DC" stroke-miterlimit="10" width="11.25" height="11.25"/>
	<rect x="106.101" y="184.851" fill="#FEF3DC" stroke="#FEF3DC" stroke-miterlimit="10" width="11.25" height="11.25"/>
	<rect x="106.101" y="173.601" fill="#C1AB85" stroke="#C1AB85" stroke-miterlimit="10" width="11.25" height="11.25"/>
	<rect x="106.101" y="162.351" fill="#FEF3DC" stroke="#FEF3DC" stroke-miterlimit="10" width="11.25" height="11.25"/>
	<rect x="106.101" y="151.101" fill="#FEF3DC" stroke="#FEF3DC" stroke-miterlimit="10" width="11.25" height="11.25"/>
	<rect x="106.101" y="139.851" fill="#FEF3DC" stroke="#FEF3DC" stroke-miterlimit="10" width="11.25" height="11.25"/>
	<rect x="106.101" y="128.601" fill="#FEF3DC" stroke="#FEF3DC" stroke-miterlimit="10" width="11.25" height="11.25"/>
	<rect x="106.101" y="117.351" fill="#FEF3DC" stroke="#FEF3DC" stroke-miterlimit="10" width="11.25" height="11.25"/>
	<rect x="106.101" y="106.101" fill="#C1AB85" stroke="#C1AB85" stroke-miterlimit="10" width="11.25" height="11.25"/>
	<rect x="106.101" y="94.851" fill="#FEF3DC" stroke="#FEF3DC" stroke-miterlimit="10" width="11.25" height="11.25"/>
	<rect x="106.101" y="83.601" fill="#D3C2A9" stroke="#D3C2A9" stroke-miterlimit="10" width="11.25" height="11.25"/>
	<rect x="106.101" y="72.351" fill="#C1AB85" stroke="#C1AB85" stroke-miterlimit="10" width="11.25" height="11.25"/>
	<rect x="106.101" y="61.101" fill="#7A563C" stroke="#7A563C" stroke-miterlimit="10" width="11.25" height="11.25"/>
	<rect x="106.101" y="49.851" fill="#9E7859" stroke="#9E7859" stroke-miterlimit="10" width="11.25" height="11.25"/>
	<rect x="106.101" y="38.601" fill="#5A3A2B" stroke="#5A3A2B" stroke-miterlimit="10" width="11.25" height="11.25"/>
	<rect x="106.101" y="27.351" fill="#9E7859" stroke="#9E7859" stroke-miterlimit="10" width="11.25" height="11.25"/>
	<rect x="106.101" y="16.101" fill="#9E7859" stroke="#9E7859" stroke-miterlimit="10" width="11.25" height="11.25"/>
	<rect x="106.101" y="4.851" fill="#5A3A2B" stroke="#5A3A2B" stroke-miterlimit="10" width="11.25" height="11.25"/>
	<rect x="94.851" y="207.351" fill="#FEF3DC" stroke="#FEF3DC" stroke-miterlimit="10" width="11.25" height="11.25"/>
	<rect x="94.851" y="196.101" fill="#FEF3DC" stroke="#FEF3DC" stroke-miterlimit="10" width="11.25" height="11.25"/>
	<rect x="94.851" y="184.851" fill="#FEF3DC" stroke="#FEF3DC" stroke-miterlimit="10" width="11.25" height="11.25"/>
	<rect x="94.851" y="173.601" fill="#C1AB85" stroke="#C1AB85" stroke-miterlimit="10" width="11.25" height="11.25"/>
	<rect x="94.851" y="162.351" fill="#5A3A2B" stroke="#5A3A2B" stroke-miterlimit="10" width="11.25" height="11.25"/>
	<rect x="94.851" y="151.101" fill="#FEF3DC" stroke="#FEF3DC" stroke-miterlimit="10" width="11.25" height="11.25"/>
	<rect x="94.851" y="139.851" fill="#FEF3DC" stroke="#FEF3DC" stroke-miterlimit="10" width="11.25" height="11.25"/>
	<rect x="94.851" y="128.601" fill="#FEF3DC" stroke="#FEF3DC" stroke-miterlimit="10" width="11.25" height="11.25"/>
	<rect x="94.851" y="117.351" fill="#FEF3DC" stroke="#FEF3DC" stroke-miterlimit="10" width="11.25" height="11.25"/>
	<rect x="94.851" y="106.101" fill="#4F3D2D" stroke="#4F3D2D" stroke-miterlimit="10" width="11.25" height="11.25"/>
	<rect x="94.851" y="94.851" fill="#755F4E" stroke="#755F4E" stroke-miterlimit="10" width="11.25" height="11.25"/>
	<rect x="94.851" y="83.601" fill="#FEF3DC" stroke="#FEF3DC" stroke-miterlimit="10" width="11.25" height="11.25"/>
	<rect x="94.851" y="72.351" fill="#4F3D2D" stroke="#4F3D2D" stroke-miterlimit="10" width="11.25" height="11.25"/>
	<rect x="94.851" y="61.101" fill="#7A563C" stroke="#7A563C" stroke-miterlimit="10" width="11.25" height="11.25"/>
	<rect x="94.851" y="49.851" fill="#5A3A2B" stroke="#5A3A2B" stroke-miterlimit="10" width="11.25" height="11.25"/>
	<rect x="94.851" y="27.351" fill="#5A3A2B" stroke="#5A3A2B" stroke-miterlimit="10" width="11.25" height="11.25"/>
	<rect x="94.851" y="16.101" fill="#5A3A2B" stroke="#5A3A2B" stroke-miterlimit="10" width="11.25" height="11.25"/>
	<rect x="83.601" y="207.351" fill="#FEF3DC" stroke="#FEF3DC" stroke-miterlimit="10" width="11.25" height="11.25"/>
	<rect x="83.601" y="196.101" fill="#FEF3DC" stroke="#FEF3DC" stroke-miterlimit="10" width="11.25" height="11.25"/>
	<rect x="83.601" y="184.851" fill="#FEF3DC" stroke="#FEF3DC" stroke-miterlimit="10" width="11.25" height="11.25"/>
	<rect x="83.601" y="173.601" fill="#C1AB85" stroke="#C1AB85" stroke-miterlimit="10" width="11.25" height="11.25"/>
	<rect x="83.601" y="162.351" fill="#7A563C" stroke="#7A563C" stroke-miterlimit="10" width="11.25" height="11.25"/>
	<rect x="83.601" y="151.101" fill="#5A3A2B" stroke="#5A3A2B" stroke-miterlimit="10" width="11.25" height="11.25"/>
	<rect x="83.601" y="139.851" fill="#FEF3DC" stroke="#FEF3DC" stroke-miterlimit="10" width="11.25" height="11.25"/>
	<rect x="83.601" y="128.601" fill="#FEF3DC" stroke="#FEF3DC" stroke-miterlimit="10" width="11.25" height="11.25"/>
	<rect x="83.601" y="117.351" fill="#FEF3DC" stroke="#FEF3DC" stroke-miterlimit="10" width="11.25" height="11.25"/>
	<rect x="83.601" y="106.101" fill="#FEF3DC" stroke="#FEF3DC" stroke-miterlimit="10" width="11.25" height="11.25"/>
	<rect x="83.601" y="94.851" fill="#FEF3DC" stroke="#FEF3DC" stroke-miterlimit="10" width="11.25" height="11.25"/>
	<rect x="83.601" y="83.601" fill="#FEF3DC" stroke="#FEF3DC" stroke-miterlimit="10" width="11.25" height="11.25"/>
	<rect x="83.601" y="72.351" fill="#4F3D2D" stroke="#4F3D2D" stroke-miterlimit="10" width="11.25" height="11.25"/>
	<rect x="83.601" y="61.101" fill="#5A3A2B" stroke="#5A3A2B" stroke-miterlimit="10" width="11.25" height="11.25"/>
	<rect x="72.351" y="207.351" fill="#FEF3DC" stroke="#FEF3DC" stroke-miterlimit="10" width="11.25" height="11.25"/>
	<rect x="72.351" y="196.101" fill="#FEF3DC" stroke="#FEF3DC" stroke-miterlimit="10" width="11.25" height="11.25"/>
	<rect x="72.351" y="184.851" fill="#C1AB85" stroke="#C1AB85" stroke-miterlimit="10" width="11.25" height="11.25"/>
	<rect x="72.351" y="173.601" fill="#C1AB85" stroke="#C1AB85" stroke-miterlimit="10" width="11.25" height="11.25"/>
	<rect x="72.351" y="162.351" fill="#7A563C" stroke="#7A563C" stroke-miterlimit="10" width="11.25" height="11.25"/>
	<rect x="72.351" y="151.101" fill="#5A3A2B" stroke="#5A3A2B" stroke-miterlimit="10" width="11.25" height="11.25"/>
	<rect x="72.351" y="139.851" fill="#5A3A2B" stroke="#5A3A2B" stroke-miterlimit="10" width="11.25" height="11.25"/>
	<rect x="72.351" y="128.601" fill="#FEF3DC" stroke="#FEF3DC" stroke-miterlimit="10" width="11.25" height="11.25"/>
	<rect x="72.351" y="117.351" fill="#FEF3DC" stroke="#FEF3DC" stroke-miterlimit="10" width="11.25" height="11.25"/>
	<rect x="72.351" y="106.101" fill="#FEF3DC" stroke="#FEF3DC" stroke-miterlimit="10" width="11.25" height="11.25"/>
	<rect x="72.351" y="94.851" fill="#FEF3DC" stroke="#FEF3DC" stroke-miterlimit="10" width="11.25" height="11.25"/>
	<rect x="72.351" y="83.601" fill="#C1AB85" stroke="#C1AB85" stroke-miterlimit="10" width="11.25" height="11.25"/>
	<rect x="72.351" y="72.351" fill="#5A3A2B" stroke="#5A3A2B" stroke-miterlimit="10" width="11.25" height="11.25"/>
	<rect x="61.101" y="207.351" fill="#FEF3DC" stroke="#FEF3DC" stroke-miterlimit="10" width="11.25" height="11.25"/>
	<rect x="61.101" y="196.101" fill="#FEF3DC" stroke="#FEF3DC" stroke-miterlimit="10" width="11.25" height="11.25"/>
	<rect x="61.101" y="184.851" fill="#C1AB85" stroke="#C1AB85" stroke-miterlimit="10" width="11.25" height="11.25"/>
	<rect x="61.101" y="173.601" fill="#7A563C" stroke="#7A563C" stroke-miterlimit="10" width="11.25" height="11.25"/>
	<rect x="61.101" y="162.351" fill="#5A3A2B" stroke="#5A3A2B" stroke-miterlimit="10" width="11.25" height="11.25"/>
	<rect x="61.101" y="128.601" fill="#5A3A2B" stroke="#5A3A2B" stroke-miterlimit="10" width="11.25" height="11.25"/>
	<rect x="61.101" y="117.351" fill="#5A3A2B" stroke="#5A3A2B" stroke-miterlimit="10" width="11.25" height="11.25"/>
	<rect x="61.101" y="106.101" fill="#5A3A2B" stroke="#5A3A2B" stroke-miterlimit="10" width="11.25" height="11.25"/>
	<rect x="61.101" y="94.851" fill="#5A3A2B" stroke="#5A3A2B" stroke-miterlimit="10" width="11.25" height="11.25"/>
	<rect x="61.101" y="83.601" fill="#5A3A2B" stroke="#5A3A2B" stroke-miterlimit="10" width="11.25" height="11.25"/>
	<rect x="49.851" y="207.351" fill="#FEF3DC" stroke="#FEF3DC" stroke-miterlimit="10" width="11.25" height="11.25"/>
	<rect x="49.851" y="196.101" fill="#C1AB85" stroke="#C1AB85" stroke-miterlimit="10" width="11.25" height="11.25"/>
	<rect x="49.851" y="184.851" fill="#7A563C" stroke="#7A563C" stroke-miterlimit="10" width="11.25" height="11.25"/>
	<rect x="49.851" y="173.601" fill="#5A3A2B" stroke="#5A3A2B" stroke-miterlimit="10" width="11.25" height="11.25"/>
	<rect x="38.601" y="207.351" fill="#FEF3DC" stroke="#FEF3DC" stroke-miterlimit="10" width="11.25" height="11.25"/>
	<rect x="38.601" y="196.101" fill="#5A3A2B" stroke="#5A3A2B" stroke-miterlimit="10" width="11.25" height="11.25"/>
	<rect x="38.601" y="184.851" fill="#5A3A2B" stroke="#5A3A2B" stroke-miterlimit="10" width="11.25" height="11.25"/>
	<rect x="27.351" y="207.351" fill="#5A3A2B" stroke="#5A3A2B" stroke-miterlimit="10" width="11.25" height="11.25"/>
</g>
</svg>
